<?xml version="1.0" encoding="UTF-8" standalone="no"?>
<!DOCTYPE svg PUBLIC "-//W3C//DTD SVG 1.1//EN"
 "http://www.w3.org/Graphics/SVG/1.1/DTD/svg11.dtd">
<!-- Generated by graphviz version 2.43.0 (0)
 -->
<!-- Title: dependency&#45;cruiser output Pages: 1 -->
<svg width="833pt" height="486pt"
 viewBox="0.00 0.00 832.50 486.00" xmlns="http://www.w3.org/2000/svg" xmlns:xlink="http://www.w3.org/1999/xlink">
<g id="graph0" class="graph" transform="scale(1 1) rotate(0) translate(4 482)">
<title>dependency&#45;cruiser output</title>
<polygon fill="white" stroke="transparent" points="-4,4 -4,-482 828.5,-482 828.5,4 -4,4"/>
<g id="clust1" class="cluster">
<title>cluster_src</title>
<path fill="#ffffff" stroke="black" stroke-width="2" d="M20,-56C20,-56 804.5,-56 804.5,-56 810.5,-56 816.5,-62 816.5,-68 816.5,-68 816.5,-458 816.5,-458 816.5,-464 810.5,-470 804.5,-470 804.5,-470 20,-470 20,-470 14,-470 8,-464 8,-458 8,-458 8,-68 8,-68 8,-62 14,-56 20,-56"/>
<text text-anchor="middle" x="412.25" y="-458.8" font-family="Helvetica,sans-Serif" font-weight="bold" font-size="9.00">src</text>
</g>
<g id="clust2" class="cluster">
<title>cluster_src/cli</title>
<path fill="#ffffff" stroke="black" stroke-width="2" d="M28,-64C28,-64 90,-64 90,-64 96,-64 102,-70 102,-76 102,-76 102,-134 102,-134 102,-140 96,-146 90,-146 90,-146 28,-146 28,-146 22,-146 16,-140 16,-134 16,-134 16,-76 16,-76 16,-70 22,-64 28,-64"/>
<text text-anchor="middle" x="59" y="-134.8" font-family="Helvetica,sans-Serif" font-weight="bold" font-size="9.00">cli</text>
</g>
<g id="clust3" class="cluster">
<title>cluster_src/lib</title>
<path fill="#ffffff" stroke="black" stroke-width="2" d="M122,-64C122,-64 796.5,-64 796.5,-64 802.5,-64 808.5,-70 808.5,-76 808.5,-76 808.5,-432 808.5,-432 808.5,-438 802.5,-444 796.5,-444 796.5,-444 122,-444 122,-444 116,-444 110,-438 110,-432 110,-432 110,-76 110,-76 110,-70 116,-64 122,-64"/>
<text text-anchor="middle" x="459.25" y="-432.8" font-family="Helvetica,sans-Serif" font-weight="bold" font-size="9.00">lib</text>
</g>
<g id="clust4" class="cluster">
<title>cluster_src/lib/parser</title>
<path fill="#ffffff" stroke="black" stroke-width="2" d="M192,-72C192,-72 788.5,-72 788.5,-72 794.5,-72 800.5,-78 800.5,-84 800.5,-84 800.5,-232 800.5,-232 800.5,-238 794.5,-244 788.5,-244 788.5,-244 192,-244 192,-244 186,-244 180,-238 180,-232 180,-232 180,-84 180,-84 180,-78 186,-72 192,-72"/>
<text text-anchor="middle" x="490.25" y="-232.8" font-family="Helvetica,sans-Serif" font-weight="bold" font-size="9.00">parser</text>
</g>
<g id="clust5" class="cluster">
<title>cluster_src/lib/parser/errors</title>
<path fill="#ffffff" stroke="black" stroke-width="2" d="M634.5,-80C634.5,-80 780.5,-80 780.5,-80 786.5,-80 792.5,-86 792.5,-92 792.5,-92 792.5,-180 792.5,-180 792.5,-186 786.5,-192 780.5,-192 780.5,-192 634.5,-192 634.5,-192 628.5,-192 622.5,-186 622.5,-180 622.5,-180 622.5,-92 622.5,-92 622.5,-86 628.5,-80 634.5,-80"/>
<text text-anchor="middle" x="707.5" y="-180.8" font-family="Helvetica,sans-Serif" font-weight="bold" font-size="9.00">errors</text>
</g>
<g id="clust6" class="cluster">
<title>cluster_src/lib/validation</title>
<path fill="#ffffff" stroke="black" stroke-width="2" d="M205,-262C205,-262 460.5,-262 460.5,-262 466.5,-262 472.5,-268 472.5,-274 472.5,-274 472.5,-366 472.5,-366 472.5,-372 466.5,-378 460.5,-378 460.5,-378 205,-378 205,-378 199,-378 193,-372 193,-366 193,-366 193,-274 193,-274 193,-268 199,-262 205,-262"/>
<text text-anchor="middle" x="332.75" y="-366.8" font-family="Helvetica,sans-Serif" font-weight="bold" font-size="9.00">validation</text>
</g>
<g id="clust7" class="cluster">
<title>cluster_src/lib/validation/errors</title>
<path fill="#ffffff" stroke="black" stroke-width="2" d="M328.5,-270C328.5,-270 452.5,-270 452.5,-270 458.5,-270 464.5,-276 464.5,-282 464.5,-282 464.5,-340 464.5,-340 464.5,-346 458.5,-352 452.5,-352 452.5,-352 328.5,-352 328.5,-352 322.5,-352 316.5,-346 316.5,-340 316.5,-340 316.5,-282 316.5,-282 316.5,-276 322.5,-270 328.5,-270"/>
<text text-anchor="middle" x="390.5" y="-340.8" font-family="Helvetica,sans-Serif" font-weight="bold" font-size="9.00">errors</text>
</g>
<!-- console -->
<g id="node1" class="node">
<title>console</title>
<g id="a_node1"><a xlink:title="console">
<path fill="#ffffcc" stroke="grey" d="M166,-48C166,-48 124,-48 124,-48 121,-48 118,-45 118,-42 118,-42 118,-36 118,-36 118,-33 121,-30 124,-30 124,-30 166,-30 166,-30 169,-30 172,-33 172,-36 172,-36 172,-42 172,-42 172,-45 169,-48 166,-48"/>
<text text-anchor="middle" x="145" y="-36.8" font-family="Helvetica,sans-Serif" font-size="9.00" fill="grey">console</text>
</a>
</g>
</g>
<!-- process -->
<g id="node2" class="node">
<title>process</title>
<g id="a_node2"><a xlink:title="process">
<path fill="#ffffcc" stroke="grey" d="M166,-18C166,-18 124,-18 124,-18 121,-18 118,-15 118,-12 118,-12 118,-6 118,-6 118,-3 121,0 124,0 124,0 166,0 166,0 169,0 172,-3 172,-6 172,-6 172,-12 172,-12 172,-15 169,-18 166,-18"/>
<text text-anchor="middle" x="145" y="-6.8" font-family="Helvetica,sans-Serif" font-size="9.00" fill="grey">process</text>
</a>
</g>
</g>
<!-- src/cli/example.cjs -->
<g id="node3" class="node">
<title>src/cli/example.cjs</title>
<g id="a_node3"><a xlink:href="src/cli/example.cjs" xlink:title="example.cjs">
<path fill="#ffffcc" stroke="black" d="M88,-90C88,-90 30,-90 30,-90 27,-90 24,-87 24,-84 24,-84 24,-78 24,-78 24,-75 27,-72 30,-72 30,-72 88,-72 88,-72 91,-72 94,-75 94,-78 94,-78 94,-84 94,-84 94,-87 91,-90 88,-90"/>
<text text-anchor="start" x="32" y="-78.8" font-family="Helvetica,sans-Serif" font-size="9.00">example.cjs</text>
</a>
</g>
</g>
<!-- src/cli/example.cjs&#45;&gt;console -->
<g id="edge2" class="edge">
<title>src/cli/example.cjs&#45;&gt;console</title>
<path fill="none" stroke="#000000" stroke-dasharray="5,2" stroke-opacity="0.200000" d="M78.23,-71.89C90.56,-65.72 106.96,-57.52 120.3,-50.85"/>
<polygon fill="#000000" fill-opacity="0.200000" stroke="#000000" stroke-opacity="0.200000" points="121.38,-52.66 125.81,-48.1 119.5,-48.9 121.38,-52.66"/>
</g>
<!-- src/cli/example.cjs&#45;&gt;process -->
<g id="edge3" class="edge">
<title>src/cli/example.cjs&#45;&gt;process</title>
<path fill="none" stroke="#000000" stroke-dasharray="5,2" stroke-opacity="0.200000" d="M66.12,-71.8C74.69,-59.51 91.32,-37.71 110,-24 111.41,-22.96 112.91,-21.98 114.46,-21.04"/>
<polygon fill="#000000" fill-opacity="0.200000" stroke="#000000" stroke-opacity="0.200000" points="115.62,-22.8 119.86,-18.07 113.59,-19.12 115.62,-22.8"/>
</g>
<!-- src/lib/main.ts -->
<g id="node4" class="node">
<title>src/lib/main.ts</title>
<g id="a_node4"><a xlink:href="src/lib/main.ts" xlink:title="main.ts">
<path fill="#ddfeff" stroke="black" d="M166,-177C166,-177 124,-177 124,-177 121,-177 118,-174 118,-171 118,-171 118,-165 118,-165 118,-162 121,-159 124,-159 124,-159 166,-159 166,-159 169,-159 172,-162 172,-165 172,-165 172,-171 172,-171 172,-174 169,-177 166,-177"/>
<text text-anchor="start" x="128" y="-165.8" font-family="Helvetica,sans-Serif" font-size="9.00">main.ts</text>
</a>
</g>
</g>
<!-- src/cli/example.cjs&#45;&gt;src/lib/main.ts -->
<g id="edge1" class="edge">
<title>src/cli/example.cjs&#45;&gt;src/lib/main.ts</title>
<path fill="none" stroke="#000000" stroke-width="2" stroke-dasharray="5,2" stroke-opacity="0.200000" d="M92.89,-90.13C96.15,-91.78 99.26,-93.72 102,-96 120.28,-111.18 132.39,-136.51 138.72,-152.72"/>
<polygon fill="#000000" fill-opacity="0.200000" stroke="#000000" stroke-width="2" stroke-opacity="0.200000" points="136.87,-153.77 140.94,-158.65 140.81,-152.3 136.87,-153.77"/>
</g>
<!-- src/lib/types.ts -->
<g id="node6" class="node">
<title>src/lib/types.ts</title>
<g id="a_node6"><a xlink:href="src/lib/types.ts" xlink:title="types.ts">
<path fill="#ddfeff" stroke="black" d="M568.5,-311C568.5,-311 526.5,-311 526.5,-311 523.5,-311 520.5,-308 520.5,-305 520.5,-305 520.5,-299 520.5,-299 520.5,-296 523.5,-293 526.5,-293 526.5,-293 568.5,-293 568.5,-293 571.5,-293 574.5,-296 574.5,-299 574.5,-299 574.5,-305 574.5,-305 574.5,-308 571.5,-311 568.5,-311"/>
<text text-anchor="start" x="529" y="-299.8" font-family="Helvetica,sans-Serif" font-size="9.00">types.ts</text>
</a>
</g>
</g>
<!-- src/lib/main.ts&#45;&gt;src/lib/types.ts -->
<g id="edge9" class="edge">
<title>src/lib/main.ts&#45;&gt;src/lib/types.ts</title>
<path fill="none" stroke="#000000" stroke-width="2" stroke-opacity="0.200000" d="M146.93,-177.24C149.18,-194.28 156.61,-230.43 180,-247 193.29,-256.42 456.74,-262.89 472.5,-267 491.56,-271.97 511.67,-281.82 526.11,-289.8"/>
<polygon fill="#000000" fill-opacity="0.200000" stroke="#000000" stroke-width="2" stroke-opacity="0.200000" points="525.29,-291.75 531.55,-292.87 527.35,-288.09 525.29,-291.75"/>
</g>
<!-- src/lib/parser/parseCommandLine.ts -->
<g id="node7" class="node">
<title>src/lib/parser/parseCommandLine.ts</title>
<g id="a_node7"><a xlink:href="src/lib/parser/parseCommandLine.ts" xlink:title="parseCommandLine.ts">
<path fill="#ddfeff" stroke="black" d="M300,-177C300,-177 194,-177 194,-177 191,-177 188,-174 188,-171 188,-171 188,-165 188,-165 188,-162 191,-159 194,-159 194,-159 300,-159 300,-159 303,-159 306,-162 306,-165 306,-165 306,-171 306,-171 306,-174 303,-177 300,-177"/>
<text text-anchor="start" x="196" y="-165.8" font-family="Helvetica,sans-Serif" font-size="9.00">parseCommandLine.ts</text>
</a>
</g>
</g>
<!-- src/lib/main.ts&#45;&gt;src/lib/parser/parseCommandLine.ts -->
<g id="edge8" class="edge">
<title>src/lib/main.ts&#45;&gt;src/lib/parser/parseCommandLine.ts</title>
<path fill="none" stroke="#000000" stroke-width="2" stroke-opacity="0.200000" d="M172.01,-168C175.12,-168 178.4,-168 181.76,-168"/>
<polygon fill="#000000" fill-opacity="0.200000" stroke="#000000" stroke-width="2" stroke-opacity="0.200000" points="181.91,-170.1 187.91,-168 181.91,-165.9 181.91,-170.1"/>
</g>
<!-- src/lib/validation/validateConfig.ts -->
<g id="node8" class="node">
<title>src/lib/validation/validateConfig.ts</title>
<g id="a_node8"><a xlink:href="src/lib/validation/validateConfig.ts" xlink:title="validateConfig.ts">
<path fill="#ddfeff" stroke="black" d="M287,-311C287,-311 207,-311 207,-311 204,-311 201,-308 201,-305 201,-305 201,-299 201,-299 201,-296 204,-293 207,-293 207,-293 287,-293 287,-293 290,-293 293,-296 293,-299 293,-299 293,-305 293,-305 293,-308 290,-311 287,-311"/>
<text text-anchor="start" x="209" y="-299.8" font-family="Helvetica,sans-Serif" font-size="9.00">validateConfig.ts</text>
</a>
</g>
</g>
<!-- src/lib/main.ts&#45;&gt;src/lib/validation/validateConfig.ts -->
<g id="edge10" class="edge">
<title>src/lib/main.ts&#45;&gt;src/lib/validation/validateConfig.ts</title>
<path fill="none" stroke="#000000" stroke-width="2" stroke-opacity="0.200000" d="M145.59,-177.21C145.12,-199.89 147.3,-258.8 180,-289 184.38,-293.04 189.63,-295.99 195.23,-298.12"/>
<polygon fill="#000000" fill-opacity="0.200000" stroke="#000000" stroke-width="2" stroke-opacity="0.200000" points="194.58,-300.11 200.94,-299.98 195.89,-296.12 194.58,-300.11"/>
</g>
<!-- src/cli/example.ts -->
<g id="node5" class="node">
<title>src/cli/example.ts</title>
<g id="a_node5"><a xlink:href="src/cli/example.ts" xlink:title="example.ts">
<path fill="#ddfeff" stroke="black" d="M86,-120C86,-120 32,-120 32,-120 29,-120 26,-117 26,-114 26,-114 26,-108 26,-108 26,-105 29,-102 32,-102 32,-102 86,-102 86,-102 89,-102 92,-105 92,-108 92,-108 92,-114 92,-114 92,-117 89,-120 86,-120"/>
<text text-anchor="start" x="34" y="-108.8" font-family="Helvetica,sans-Serif" font-size="9.00">example.ts</text>
</a>
</g>
</g>
<!-- src/cli/example.ts&#45;&gt;console -->
<g id="edge6" class="edge">
<title>src/cli/example.ts&#45;&gt;console</title>
<path fill="none" stroke="#000000" stroke-dasharray="5,2" stroke-opacity="0.200000" d="M92.41,-103.34C96.01,-101.42 99.33,-99.01 102,-96 112.6,-84.07 100.85,-74.07 110,-61 112.38,-57.6 115.47,-54.59 118.82,-51.99"/>
<polygon fill="#000000" fill-opacity="0.200000" stroke="#000000" stroke-opacity="0.200000" points="120.51,-53.37 124.23,-48.22 118.11,-49.93 120.51,-53.37"/>
</g>
<!-- src/cli/example.ts&#45;&gt;process -->
<g id="edge7" class="edge">
<title>src/cli/example.ts&#45;&gt;process</title>
<path fill="none" stroke="#000000" stroke-dasharray="5,2" stroke-opacity="0.200000" d="M92.34,-103.85C96.04,-101.84 99.41,-99.28 102,-96 121.97,-70.75 90.95,-49.96 110,-24 110.77,-22.95 111.64,-21.97 112.57,-21.05"/>
<polygon fill="#000000" fill-opacity="0.200000" stroke="#000000" stroke-opacity="0.200000" points="114.3,-22.37 117.75,-17.03 111.72,-19.05 114.3,-22.37"/>
</g>
<!-- src/cli/example.ts&#45;&gt;src/lib/main.ts -->
<g id="edge4" class="edge">
<title>src/cli/example.ts&#45;&gt;src/lib/main.ts</title>
<path fill="none" stroke="#000000" stroke-width="2" stroke-opacity="0.200000" d="M73.5,-120.16C87.58,-129.71 109.76,-144.76 125.48,-155.43"/>
<polygon fill="#000000" fill-opacity="0.200000" stroke="#000000" stroke-width="2" stroke-opacity="0.200000" points="124.39,-157.23 130.54,-158.86 126.75,-153.76 124.39,-157.23"/>
</g>
<!-- src/cli/example.ts&#45;&gt;src/lib/types.ts -->
<g id="edge5" class="edge">
<title>src/cli/example.ts&#45;&gt;src/lib/types.ts</title>
<path fill="none" stroke="#000000" stroke-width="2" stroke-opacity="0.200000" d="M61.25,-120.05C66.99,-158.04 94.3,-306.01 180,-381 278.75,-467.4 357.81,-484.74 472.5,-421 513.06,-398.46 534.25,-343.46 542.43,-316.87"/>
<polygon fill="#000000" fill-opacity="0.200000" stroke="#000000" stroke-width="2" stroke-opacity="0.200000" points="544.46,-317.41 544.15,-311.06 540.43,-316.22 544.46,-317.41"/>
</g>
<!-- src/lib/parser/parseCommandLine.ts&#45;&gt;src/lib/types.ts -->
<g id="edge20" class="edge">
<title>src/lib/parser/parseCommandLine.ts&#45;&gt;src/lib/types.ts</title>
<path fill="none" stroke="#000000" stroke-width="2" stroke-opacity="0.200000" d="M301.24,-177.09C302.93,-178.26 304.53,-179.55 306,-181 320.04,-194.78 302.04,-210.66 316.5,-224 368.11,-271.61 407.56,-222.29 472.5,-249 495.41,-258.42 518.01,-276.18 532.09,-288.53"/>
<polygon fill="#000000" fill-opacity="0.200000" stroke="#000000" stroke-width="2" stroke-opacity="0.200000" points="531,-290.37 536.87,-292.81 533.8,-287.24 531,-290.37"/>
</g>
<!-- src/lib/parser/_types.ts -->
<g id="node9" class="node">
<title>src/lib/parser/_types.ts</title>
<g id="a_node9"><a xlink:href="src/lib/parser/_types.ts" xlink:title="_types.ts">
<path fill="#ddfeff" stroke="black" d="M730,-218C730,-218 685,-218 685,-218 682,-218 679,-215 679,-212 679,-212 679,-206 679,-206 679,-203 682,-200 685,-200 685,-200 730,-200 730,-200 733,-200 736,-203 736,-206 736,-206 736,-212 736,-212 736,-215 733,-218 730,-218"/>
<text text-anchor="start" x="687" y="-206.8" font-family="Helvetica,sans-Serif" font-size="9.00">_types.ts</text>
</a>
</g>
</g>
<!-- src/lib/parser/parseCommandLine.ts&#45;&gt;src/lib/parser/_types.ts -->
<g id="edge21" class="edge">
<title>src/lib/parser/parseCommandLine.ts&#45;&gt;src/lib/parser/_types.ts</title>
<path fill="none" stroke="#000000" stroke-width="2" stroke-opacity="0.200000" d="M306.29,-164.36C309.74,-164.22 313.17,-164.1 316.5,-164 385.8,-161.98 403.34,-159.15 472.5,-164 536.08,-168.46 559.87,-151.18 614.5,-184 619.68,-187.11 617.36,-191.82 622.5,-195 637.38,-204.19 656.44,-207.88 672.65,-209.19"/>
<polygon fill="#000000" fill-opacity="0.200000" stroke="#000000" stroke-width="2" stroke-opacity="0.200000" points="672.81,-211.3 678.93,-209.59 673.08,-207.11 672.81,-211.3"/>
</g>
<!-- src/lib/parser/createNewConfig.ts -->
<g id="node10" class="node">
<title>src/lib/parser/createNewConfig.ts</title>
<g id="a_node10"><a xlink:href="src/lib/parser/createNewConfig.ts" xlink:title="createNewConfig.ts">
<path fill="#ddfeff" stroke="black" d="M594,-99C594,-99 501,-99 501,-99 498,-99 495,-96 495,-93 495,-93 495,-87 495,-87 495,-84 498,-81 501,-81 501,-81 594,-81 594,-81 597,-81 600,-84 600,-87 600,-87 600,-93 600,-93 600,-96 597,-99 594,-99"/>
<text text-anchor="start" x="503" y="-87.8" font-family="Helvetica,sans-Serif" font-size="9.00">createNewConfig.ts</text>
</a>
</g>
</g>
<!-- src/lib/parser/parseCommandLine.ts&#45;&gt;src/lib/parser/createNewConfig.ts -->
<g id="edge22" class="edge">
<title>src/lib/parser/parseCommandLine.ts&#45;&gt;src/lib/parser/createNewConfig.ts</title>
<path fill="none" stroke="#000000" stroke-width="2" stroke-opacity="0.200000" d="M257.29,-158.99C269.68,-147.58 292.81,-128.28 316.5,-119 372.39,-97.12 441.21,-90.89 488.93,-89.5"/>
<polygon fill="#000000" fill-opacity="0.200000" stroke="#000000" stroke-width="2" stroke-opacity="0.200000" points="488.99,-91.6 494.93,-89.35 488.88,-87.4 488.99,-91.6"/>
</g>
<!-- src/lib/parser/makeOptionMaps.ts -->
<g id="node15" class="node">
<title>src/lib/parser/makeOptionMaps.ts</title>
<g id="a_node15"><a xlink:href="src/lib/parser/makeOptionMaps.ts" xlink:title="makeOptionMaps.ts">
<path fill="#ddfeff" stroke="black" d="M437.5,-188C437.5,-188 343.5,-188 343.5,-188 340.5,-188 337.5,-185 337.5,-182 337.5,-182 337.5,-176 337.5,-176 337.5,-173 340.5,-170 343.5,-170 343.5,-170 437.5,-170 437.5,-170 440.5,-170 443.5,-173 443.5,-176 443.5,-176 443.5,-182 443.5,-182 443.5,-185 440.5,-188 437.5,-188"/>
<text text-anchor="start" x="345.5" y="-176.8" font-family="Helvetica,sans-Serif" font-size="9.00">makeOptionMaps.ts</text>
</a>
</g>
</g>
<!-- src/lib/parser/parseCommandLine.ts&#45;&gt;src/lib/parser/makeOptionMaps.ts -->
<g id="edge23" class="edge">
<title>src/lib/parser/parseCommandLine.ts&#45;&gt;src/lib/parser/makeOptionMaps.ts</title>
<path fill="none" stroke="#000000" stroke-width="2" stroke-opacity="0.200000" d="M306.37,-172.54C314.5,-173.17 322.85,-173.82 330.99,-174.45"/>
<polygon fill="#000000" fill-opacity="0.200000" stroke="#000000" stroke-width="2" stroke-opacity="0.200000" points="331.01,-176.56 337.15,-174.93 331.33,-172.37 331.01,-176.56"/>
</g>
<!-- src/lib/parser/newConfigFromOptions.ts -->
<g id="node16" class="node">
<title>src/lib/parser/newConfigFromOptions.ts</title>
<g id="a_node16"><a xlink:href="src/lib/parser/newConfigFromOptions.ts" xlink:title="newConfigFromOptions.ts">
<path fill="#ddfeff" stroke="black" d="M451,-143C451,-143 330,-143 330,-143 327,-143 324,-140 324,-137 324,-137 324,-131 324,-131 324,-128 327,-125 330,-125 330,-125 451,-125 451,-125 454,-125 457,-128 457,-131 457,-131 457,-137 457,-137 457,-140 454,-143 451,-143"/>
<text text-anchor="start" x="332" y="-131.8" font-family="Helvetica,sans-Serif" font-size="9.00">newConfigFromOptions.ts</text>
</a>
</g>
</g>
<!-- src/lib/parser/parseCommandLine.ts&#45;&gt;src/lib/parser/newConfigFromOptions.ts -->
<g id="edge24" class="edge">
<title>src/lib/parser/parseCommandLine.ts&#45;&gt;src/lib/parser/newConfigFromOptions.ts</title>
<path fill="none" stroke="#000000" stroke-width="2" stroke-opacity="0.200000" d="M285.55,-158.98C304.1,-154.52 326.59,-149.12 345.89,-144.48"/>
<polygon fill="#000000" fill-opacity="0.200000" stroke="#000000" stroke-width="2" stroke-opacity="0.200000" points="346.43,-146.51 351.78,-143.06 345.45,-142.42 346.43,-146.51"/>
</g>
<!-- src/lib/parser/splitOptionsAndOperands.ts -->
<g id="node17" class="node">
<title>src/lib/parser/splitOptionsAndOperands.ts</title>
<g id="a_node17"><a xlink:href="src/lib/parser/splitOptionsAndOperands.ts" xlink:title="splitOptionsAndOperands.ts">
<path fill="#ddfeff" stroke="black" d="M456,-218C456,-218 325,-218 325,-218 322,-218 319,-215 319,-212 319,-212 319,-206 319,-206 319,-203 322,-200 325,-200 325,-200 456,-200 456,-200 459,-200 462,-203 462,-206 462,-206 462,-212 462,-212 462,-215 459,-218 456,-218"/>
<text text-anchor="start" x="327" y="-206.8" font-family="Helvetica,sans-Serif" font-size="9.00">splitOptionsAndOperands.ts</text>
</a>
</g>
</g>
<!-- src/lib/parser/parseCommandLine.ts&#45;&gt;src/lib/parser/splitOptionsAndOperands.ts -->
<g id="edge25" class="edge">
<title>src/lib/parser/parseCommandLine.ts&#45;&gt;src/lib/parser/splitOptionsAndOperands.ts</title>
<path fill="none" stroke="#000000" stroke-width="2" stroke-opacity="0.200000" d="M298.52,-177.07C301.12,-178.22 303.63,-179.53 306,-181 312.31,-184.92 310.16,-190.14 316.5,-194 318.5,-195.22 320.57,-196.33 322.71,-197.36"/>
<polygon fill="#000000" fill-opacity="0.200000" stroke="#000000" stroke-width="2" stroke-opacity="0.200000" points="322.16,-199.41 328.5,-199.89 323.84,-195.56 322.16,-199.41"/>
</g>
<!-- src/lib/validation/validateConfig.ts&#45;&gt;src/lib/types.ts -->
<g id="edge29" class="edge">
<title>src/lib/validation/validateConfig.ts&#45;&gt;src/lib/types.ts</title>
<path fill="none" stroke="#000000" stroke-width="2" stroke-opacity="0.200000" d="M293.26,-306.11C298.08,-308.2 302.49,-311.08 306,-315 320.17,-330.82 300.68,-395.83 316.5,-410 342.32,-433.13 441.83,-426.16 472.5,-410 510.13,-390.17 532.29,-341.62 541.49,-316.93"/>
<polygon fill="#000000" fill-opacity="0.200000" stroke="#000000" stroke-width="2" stroke-opacity="0.200000" points="543.49,-317.56 543.55,-311.2 539.54,-316.14 543.49,-317.56"/>
</g>
<!-- src/lib/validation/errors/InvalidConfigPropError.ts -->
<g id="node19" class="node">
<title>src/lib/validation/errors/InvalidConfigPropError.ts</title>
<g id="a_node19"><a xlink:href="src/lib/validation/errors/InvalidConfigPropError.ts" xlink:title="InvalidConfigPropError.ts">
<path fill="#ddfeff" stroke="black" d="M449,-326C449,-326 332,-326 332,-326 329,-326 326,-323 326,-320 326,-320 326,-314 326,-314 326,-311 329,-308 332,-308 332,-308 449,-308 449,-308 452,-308 455,-311 455,-314 455,-314 455,-320 455,-320 455,-323 452,-326 449,-326"/>
<text text-anchor="start" x="334" y="-314.8" font-family="Helvetica,sans-Serif" font-size="9.00">InvalidConfigPropError.ts</text>
</a>
</g>
</g>
<!-- src/lib/validation/validateConfig.ts&#45;&gt;src/lib/validation/errors/InvalidConfigPropError.ts -->
<g id="edge30" class="edge">
<title>src/lib/validation/validateConfig.ts&#45;&gt;src/lib/validation/errors/InvalidConfigPropError.ts</title>
<path fill="none" stroke="#000000" stroke-width="2" stroke-opacity="0.200000" d="M293.16,-306.79C301.72,-307.69 310.86,-308.66 319.97,-309.63"/>
<polygon fill="#000000" fill-opacity="0.200000" stroke="#000000" stroke-width="2" stroke-opacity="0.200000" points="319.75,-311.72 325.94,-310.26 320.2,-307.54 319.75,-311.72"/>
</g>
<!-- src/lib/validation/errors/InvalidOptionSpecError.ts -->
<g id="node20" class="node">
<title>src/lib/validation/errors/InvalidOptionSpecError.ts</title>
<g id="a_node20"><a xlink:href="src/lib/validation/errors/InvalidOptionSpecError.ts" xlink:title="InvalidOptionSpecError.ts">
<path fill="#ddfeff" stroke="black" d="M450.5,-296C450.5,-296 330.5,-296 330.5,-296 327.5,-296 324.5,-293 324.5,-290 324.5,-290 324.5,-284 324.5,-284 324.5,-281 327.5,-278 330.5,-278 330.5,-278 450.5,-278 450.5,-278 453.5,-278 456.5,-281 456.5,-284 456.5,-284 456.5,-290 456.5,-290 456.5,-293 453.5,-296 450.5,-296"/>
<text text-anchor="start" x="332.5" y="-284.8" font-family="Helvetica,sans-Serif" font-size="9.00">InvalidOptionSpecError.ts</text>
</a>
</g>
</g>
<!-- src/lib/validation/validateConfig.ts&#45;&gt;src/lib/validation/errors/InvalidOptionSpecError.ts -->
<g id="edge31" class="edge">
<title>src/lib/validation/validateConfig.ts&#45;&gt;src/lib/validation/errors/InvalidOptionSpecError.ts</title>
<path fill="none" stroke="#000000" stroke-width="2" stroke-opacity="0.200000" d="M293.16,-297.21C301.09,-296.37 309.51,-295.48 317.95,-294.58"/>
<polygon fill="#000000" fill-opacity="0.200000" stroke="#000000" stroke-width="2" stroke-opacity="0.200000" points="318.65,-296.62 324.4,-293.9 318.21,-292.45 318.65,-296.62"/>
</g>
<!-- src/lib/parser/createPartialChangeObj.ts -->
<g id="node11" class="node">
<title>src/lib/parser/createPartialChangeObj.ts</title>
<g id="a_node11"><a xlink:href="src/lib/parser/createPartialChangeObj.ts" xlink:title="createPartialChangeObj.ts">
<path fill="#ddfeff" stroke="black" d="M608.5,-143C608.5,-143 486.5,-143 486.5,-143 483.5,-143 480.5,-140 480.5,-137 480.5,-137 480.5,-131 480.5,-131 480.5,-128 483.5,-125 486.5,-125 486.5,-125 608.5,-125 608.5,-125 611.5,-125 614.5,-128 614.5,-131 614.5,-131 614.5,-137 614.5,-137 614.5,-140 611.5,-143 608.5,-143"/>
<text text-anchor="start" x="488.5" y="-131.8" font-family="Helvetica,sans-Serif" font-size="9.00">createPartialChangeObj.ts</text>
</a>
</g>
</g>
<!-- src/lib/parser/createPartialChangeObj.ts&#45;&gt;src/lib/parser/_types.ts -->
<g id="edge11" class="edge">
<title>src/lib/parser/createPartialChangeObj.ts&#45;&gt;src/lib/parser/_types.ts</title>
<path fill="none" stroke="#000000" stroke-width="2" stroke-opacity="0.200000" d="M602.67,-143.01C607.07,-145.38 611.12,-148.33 614.5,-152 627.67,-166.3 608.63,-181.38 622.5,-195 635.47,-207.73 655.35,-211.46 672.51,-211.9"/>
<polygon fill="#000000" fill-opacity="0.200000" stroke="#000000" stroke-width="2" stroke-opacity="0.200000" points="672.69,-214 678.69,-211.93 672.7,-209.8 672.69,-214"/>
</g>
<!-- src/lib/parser/errors/ArgumentMissingError.ts -->
<g id="node12" class="node">
<title>src/lib/parser/errors/ArgumentMissingError.ts</title>
<g id="a_node12"><a xlink:href="src/lib/parser/errors/ArgumentMissingError.ts" xlink:title="ArgumentMissingError.ts">
<path fill="#ddfeff" stroke="black" d="M765.5,-166C765.5,-166 649.5,-166 649.5,-166 646.5,-166 643.5,-163 643.5,-160 643.5,-160 643.5,-154 643.5,-154 643.5,-151 646.5,-148 649.5,-148 649.5,-148 765.5,-148 765.5,-148 768.5,-148 771.5,-151 771.5,-154 771.5,-154 771.5,-160 771.5,-160 771.5,-163 768.5,-166 765.5,-166"/>
<text text-anchor="start" x="651.5" y="-154.8" font-family="Helvetica,sans-Serif" font-size="9.00">ArgumentMissingError.ts</text>
</a>
</g>
</g>
<!-- src/lib/parser/createPartialChangeObj.ts&#45;&gt;src/lib/parser/errors/ArgumentMissingError.ts -->
<g id="edge12" class="edge">
<title>src/lib/parser/createPartialChangeObj.ts&#45;&gt;src/lib/parser/errors/ArgumentMissingError.ts</title>
<path fill="none" stroke="#000000" stroke-width="2" stroke-opacity="0.200000" d="M610.49,-143.02C619.64,-144.36 629.11,-145.73 638.37,-147.08"/>
<polygon fill="#000000" fill-opacity="0.200000" stroke="#000000" stroke-width="2" stroke-opacity="0.200000" points="638.19,-149.18 644.43,-147.96 638.79,-145.02 638.19,-149.18"/>
</g>
<!-- src/lib/parser/errors/ArgumentNotANumberError.ts -->
<g id="node13" class="node">
<title>src/lib/parser/errors/ArgumentNotANumberError.ts</title>
<g id="a_node13"><a xlink:href="src/lib/parser/errors/ArgumentNotANumberError.ts" xlink:title="ArgumentNotANumberError.ts">
<path fill="#ddfeff" stroke="black" d="M778.5,-136C778.5,-136 636.5,-136 636.5,-136 633.5,-136 630.5,-133 630.5,-130 630.5,-130 630.5,-124 630.5,-124 630.5,-121 633.5,-118 636.5,-118 636.5,-118 778.5,-118 778.5,-118 781.5,-118 784.5,-121 784.5,-124 784.5,-124 784.5,-130 784.5,-130 784.5,-133 781.5,-136 778.5,-136"/>
<text text-anchor="start" x="638.5" y="-124.8" font-family="Helvetica,sans-Serif" font-size="9.00">ArgumentNotANumberError.ts</text>
</a>
</g>
</g>
<!-- src/lib/parser/createPartialChangeObj.ts&#45;&gt;src/lib/parser/errors/ArgumentNotANumberError.ts -->
<g id="edge13" class="edge">
<title>src/lib/parser/createPartialChangeObj.ts&#45;&gt;src/lib/parser/errors/ArgumentNotANumberError.ts</title>
<path fill="none" stroke="#000000" stroke-width="2" stroke-opacity="0.200000" d="M614.59,-131.07C617.7,-130.93 620.84,-130.79 623.99,-130.66"/>
<polygon fill="#000000" fill-opacity="0.200000" stroke="#000000" stroke-width="2" stroke-opacity="0.200000" points="624.56,-132.73 630.46,-130.37 624.37,-128.54 624.56,-132.73"/>
</g>
<!-- src/lib/parser/errors/UnknownOptionError.ts -->
<g id="node14" class="node">
<title>src/lib/parser/errors/UnknownOptionError.ts</title>
<g id="a_node14"><a xlink:href="src/lib/parser/errors/UnknownOptionError.ts" xlink:title="UnknownOptionError.ts">
<path fill="#ddfeff" stroke="black" d="M762.5,-106C762.5,-106 652.5,-106 652.5,-106 649.5,-106 646.5,-103 646.5,-100 646.5,-100 646.5,-94 646.5,-94 646.5,-91 649.5,-88 652.5,-88 652.5,-88 762.5,-88 762.5,-88 765.5,-88 768.5,-91 768.5,-94 768.5,-94 768.5,-100 768.5,-100 768.5,-103 765.5,-106 762.5,-106"/>
<text text-anchor="start" x="654.5" y="-94.8" font-family="Helvetica,sans-Serif" font-size="9.00">UnknownOptionError.ts</text>
</a>
</g>
</g>
<!-- src/lib/parser/makeOptionMaps.ts&#45;&gt;src/lib/types.ts -->
<g id="edge14" class="edge">
<title>src/lib/parser/makeOptionMaps.ts&#45;&gt;src/lib/types.ts</title>
<path fill="none" stroke="#000000" stroke-width="2" stroke-opacity="0.200000" d="M443.69,-179.14C454.47,-181.57 464.84,-186.08 472.5,-194 489.06,-211.12 468.81,-226.24 480.5,-247 490.73,-265.17 509.48,-279.9 524.38,-289.53"/>
<polygon fill="#000000" fill-opacity="0.200000" stroke="#000000" stroke-width="2" stroke-opacity="0.200000" points="523.48,-291.44 529.68,-292.84 525.71,-287.88 523.48,-291.44"/>
</g>
<!-- src/lib/parser/makeOptionMaps.ts&#45;&gt;src/lib/parser/_types.ts -->
<g id="edge15" class="edge">
<title>src/lib/parser/makeOptionMaps.ts&#45;&gt;src/lib/parser/_types.ts</title>
<path fill="none" stroke="#000000" stroke-width="2" stroke-opacity="0.200000" d="M443.52,-183.95C508.46,-190.14 617.7,-200.54 672.7,-205.78"/>
<polygon fill="#000000" fill-opacity="0.200000" stroke="#000000" stroke-width="2" stroke-opacity="0.200000" points="672.64,-207.88 678.81,-206.36 673.04,-203.7 672.64,-207.88"/>
</g>
<!-- src/lib/parser/newConfigFromOptions.ts&#45;&gt;src/lib/parser/_types.ts -->
<g id="edge16" class="edge">
<title>src/lib/parser/newConfigFromOptions.ts&#45;&gt;src/lib/parser/_types.ts</title>
<path fill="none" stroke="#000000" stroke-width="2" stroke-opacity="0.200000" d="M442.74,-143C455.09,-145.07 468.25,-147.19 480.5,-149 510.19,-153.38 591.81,-146.35 614.5,-166 624.61,-174.75 612.57,-186.05 622.5,-195 635.9,-207.08 655.61,-210.82 672.57,-211.43"/>
<polygon fill="#000000" fill-opacity="0.200000" stroke="#000000" stroke-width="2" stroke-opacity="0.200000" points="672.65,-213.53 678.68,-211.53 672.71,-209.33 672.65,-213.53"/>
</g>
<!-- src/lib/parser/newConfigFromOptions.ts&#45;&gt;src/lib/parser/createNewConfig.ts -->
<g id="edge17" class="edge">
<title>src/lib/parser/newConfigFromOptions.ts&#45;&gt;src/lib/parser/createNewConfig.ts</title>
<path fill="none" stroke="#000000" stroke-width="2" stroke-opacity="0.200000" d="M421.94,-124.96C439.12,-119.9 460.98,-113.51 480.5,-108 489.04,-105.59 498.23,-103.05 506.94,-100.66"/>
<polygon fill="#000000" fill-opacity="0.200000" stroke="#000000" stroke-width="2" stroke-opacity="0.200000" points="507.66,-102.65 512.89,-99.04 506.55,-98.59 507.66,-102.65"/>
</g>
<!-- src/lib/parser/newConfigFromOptions.ts&#45;&gt;src/lib/parser/createPartialChangeObj.ts -->
<g id="edge18" class="edge">
<title>src/lib/parser/newConfigFromOptions.ts&#45;&gt;src/lib/parser/createPartialChangeObj.ts</title>
<path fill="none" stroke="#000000" stroke-width="2" stroke-opacity="0.200000" d="M457.23,-134C462.81,-134 468.47,-134 474.09,-134"/>
<polygon fill="#000000" fill-opacity="0.200000" stroke="#000000" stroke-width="2" stroke-opacity="0.200000" points="474.17,-136.1 480.17,-134 474.17,-131.9 474.17,-136.1"/>
</g>
<!-- src/lib/parser/newConfigFromOptions.ts&#45;&gt;src/lib/parser/errors/UnknownOptionError.ts -->
<g id="edge19" class="edge">
<title>src/lib/parser/newConfigFromOptions.ts&#45;&gt;src/lib/parser/errors/UnknownOptionError.ts</title>
<path fill="none" stroke="#000000" stroke-width="2" stroke-opacity="0.200000" d="M441.3,-124.97C454.05,-122.84 467.76,-120.69 480.5,-119 510.27,-115.05 584.67,-108.01 640.03,-102.95"/>
<polygon fill="#000000" fill-opacity="0.200000" stroke="#000000" stroke-width="2" stroke-opacity="0.200000" points="640.55,-105.01 646.34,-102.38 640.17,-100.83 640.55,-105.01"/>
</g>
<!-- src/lib/sampleConfig.ts -->
<g id="node18" class="node">
<title>src/lib/sampleConfig.ts</title>
<g id="a_node18"><a xlink:href="src/lib/sampleConfig.ts" xlink:title="sampleConfig.ts">
<path fill="#ddfeff" stroke="black" d="M429,-404C429,-404 352,-404 352,-404 349,-404 346,-401 346,-398 346,-398 346,-392 346,-392 346,-389 349,-386 352,-386 352,-386 429,-386 429,-386 432,-386 435,-389 435,-392 435,-392 435,-398 435,-398 435,-401 432,-404 429,-404"/>
<text text-anchor="start" x="354" y="-392.8" font-family="Helvetica,sans-Serif" font-size="9.00">sampleConfig.ts</text>
</a>
</g>
</g>
<!-- src/lib/sampleConfig.ts&#45;&gt;src/lib/types.ts -->
<g id="edge26" class="edge">
<title>src/lib/sampleConfig.ts&#45;&gt;src/lib/types.ts</title>
<path fill="none" stroke="#000000" stroke-width="2" stroke-opacity="0.200000" d="M412.29,-385.87C428.95,-378.28 452.73,-366.86 472.5,-355 493.02,-342.7 515.15,-326.41 529.81,-315.15"/>
<polygon fill="#000000" fill-opacity="0.200000" stroke="#000000" stroke-width="2" stroke-opacity="0.200000" points="531.4,-316.58 534.86,-311.25 528.83,-313.26 531.4,-316.58"/>
</g>
<!-- src/lib/validation/errors/InvalidConfigPropError.ts&#45;&gt;src/lib/types.ts -->
<g id="edge27" class="edge">
<title>src/lib/validation/errors/InvalidConfigPropError.ts&#45;&gt;src/lib/types.ts</title>
<path fill="none" stroke="#000000" stroke-width="2" stroke-opacity="0.200000" d="M455.44,-310.81C475.64,-308.86 497.11,-306.78 514.13,-305.13"/>
<polygon fill="#000000" fill-opacity="0.200000" stroke="#000000" stroke-width="2" stroke-opacity="0.200000" points="514.41,-307.21 520.18,-304.55 514.01,-303.03 514.41,-307.21"/>
</g>
<!-- src/lib/validation/errors/InvalidOptionSpecError.ts&#45;&gt;src/lib/types.ts -->
<g id="edge28" class="edge">
<title>src/lib/validation/errors/InvalidOptionSpecError.ts&#45;&gt;src/lib/types.ts</title>
<path fill="none" stroke="#000000" stroke-width="2" stroke-opacity="0.200000" d="M456.78,-293.32C476.51,-295.23 497.31,-297.24 513.91,-298.85"/>
<polygon fill="#000000" fill-opacity="0.200000" stroke="#000000" stroke-width="2" stroke-opacity="0.200000" points="514.12,-300.98 520.29,-299.46 514.52,-296.8 514.12,-300.98"/>
</g>
</g>
</svg>
