<?xml version="1.0" encoding="UTF-8" standalone="no"?>
<!DOCTYPE svg PUBLIC "-//W3C//DTD SVG 1.1//EN"
 "http://www.w3.org/Graphics/SVG/1.1/DTD/svg11.dtd">
<!-- Generated by graphviz version 2.43.0 (0)
 -->
<!-- Title: dependency&#45;cruiser output Pages: 1 -->
<svg width="826pt" height="442pt"
 viewBox="0.00 0.00 825.50 442.00" xmlns="http://www.w3.org/2000/svg" xmlns:xlink="http://www.w3.org/1999/xlink">
<g id="graph0" class="graph" transform="scale(1 1) rotate(0) translate(4 438)">
<title>dependency&#45;cruiser output</title>
<polygon fill="white" stroke="transparent" points="-4,4 -4,-438 821.5,-438 821.5,4 -4,4"/>
<g id="clust1" class="cluster">
<title>cluster_src</title>
<path fill="#ffffff" stroke="black" stroke-width="2" d="M20,-8C20,-8 797.5,-8 797.5,-8 803.5,-8 809.5,-14 809.5,-20 809.5,-20 809.5,-414 809.5,-414 809.5,-420 803.5,-426 797.5,-426 797.5,-426 20,-426 20,-426 14,-426 8,-420 8,-414 8,-414 8,-20 8,-20 8,-14 14,-8 20,-8"/>
<text text-anchor="middle" x="408.75" y="-414.8" font-family="Helvetica,sans-Serif" font-weight="bold" font-size="9.00">src</text>
</g>
<g id="clust2" class="cluster">
<title>cluster_src/lib</title>
<path fill="#ffffff" stroke="black" stroke-width="2" d="M28,-16C28,-16 789.5,-16 789.5,-16 795.5,-16 801.5,-22 801.5,-28 801.5,-28 801.5,-388 801.5,-388 801.5,-394 795.5,-400 789.5,-400 789.5,-400 28,-400 28,-400 22,-400 16,-394 16,-388 16,-388 16,-28 16,-28 16,-22 22,-16 28,-16"/>
<text text-anchor="middle" x="408.75" y="-388.8" font-family="Helvetica,sans-Serif" font-weight="bold" font-size="9.00">lib</text>
</g>
<g id="clust3" class="cluster">
<title>cluster_src/lib/parser</title>
<path fill="#ffffff" stroke="black" stroke-width="2" d="M185,-24C185,-24 781.5,-24 781.5,-24 787.5,-24 793.5,-30 793.5,-36 793.5,-36 793.5,-184 793.5,-184 793.5,-190 787.5,-196 781.5,-196 781.5,-196 185,-196 185,-196 179,-196 173,-190 173,-184 173,-184 173,-36 173,-36 173,-30 179,-24 185,-24"/>
<text text-anchor="middle" x="483.25" y="-184.8" font-family="Helvetica,sans-Serif" font-weight="bold" font-size="9.00">parser</text>
</g>
<g id="clust4" class="cluster">
<title>cluster_src/lib/parser/errors</title>
<path fill="#ffffff" stroke="black" stroke-width="2" d="M627.5,-32C627.5,-32 773.5,-32 773.5,-32 779.5,-32 785.5,-38 785.5,-44 785.5,-44 785.5,-132 785.5,-132 785.5,-138 779.5,-144 773.5,-144 773.5,-144 627.5,-144 627.5,-144 621.5,-144 615.5,-138 615.5,-132 615.5,-132 615.5,-44 615.5,-44 615.5,-38 621.5,-32 627.5,-32"/>
<text text-anchor="middle" x="700.5" y="-132.8" font-family="Helvetica,sans-Serif" font-weight="bold" font-size="9.00">errors</text>
</g>
<g id="clust5" class="cluster">
<title>cluster_src/lib/validation</title>
<path fill="#ffffff" stroke="black" stroke-width="2" d="M198,-258C198,-258 453.5,-258 453.5,-258 459.5,-258 465.5,-264 465.5,-270 465.5,-270 465.5,-362 465.5,-362 465.5,-368 459.5,-374 453.5,-374 453.5,-374 198,-374 198,-374 192,-374 186,-368 186,-362 186,-362 186,-270 186,-270 186,-264 192,-258 198,-258"/>
<text text-anchor="middle" x="325.75" y="-362.8" font-family="Helvetica,sans-Serif" font-weight="bold" font-size="9.00">validation</text>
</g>
<g id="clust6" class="cluster">
<title>cluster_src/lib/validation/errors</title>
<path fill="#ffffff" stroke="black" stroke-width="2" d="M321.5,-266C321.5,-266 445.5,-266 445.5,-266 451.5,-266 457.5,-272 457.5,-278 457.5,-278 457.5,-336 457.5,-336 457.5,-342 451.5,-348 445.5,-348 445.5,-348 321.5,-348 321.5,-348 315.5,-348 309.5,-342 309.5,-336 309.5,-336 309.5,-278 309.5,-278 309.5,-272 315.5,-266 321.5,-266"/>
<text text-anchor="middle" x="383.5" y="-336.8" font-family="Helvetica,sans-Serif" font-weight="bold" font-size="9.00">errors</text>
</g>
<!-- src/lib/main.spec.ts -->
<g id="node1" class="node">
<title>src/lib/main.spec.ts</title>
<g id="a_node1"><a xlink:href="src/lib/main.spec.ts" xlink:title="main.spec.ts">
<path fill="#ddfeff" stroke="black" d="M92,-258C92,-258 30,-258 30,-258 27,-258 24,-255 24,-252 24,-252 24,-246 24,-246 24,-243 27,-240 30,-240 30,-240 92,-240 92,-240 95,-240 98,-243 98,-246 98,-246 98,-252 98,-252 98,-255 95,-258 92,-258"/>
<text text-anchor="start" x="32" y="-246.8" font-family="Helvetica,sans-Serif" font-size="9.00">main.spec.ts</text>
</a>
</g>
</g>
<!-- src/lib/main.ts -->
<g id="node2" class="node">
<title>src/lib/main.ts</title>
<g id="a_node2"><a xlink:href="src/lib/main.ts" xlink:title="main.ts">
<path fill="#ddfeff" stroke="black" d="M159,-258C159,-258 117,-258 117,-258 114,-258 111,-255 111,-252 111,-252 111,-246 111,-246 111,-243 114,-240 117,-240 117,-240 159,-240 159,-240 162,-240 165,-243 165,-246 165,-246 165,-252 165,-252 165,-255 162,-258 159,-258"/>
<text text-anchor="start" x="121" y="-246.8" font-family="Helvetica,sans-Serif" font-size="9.00">main.ts</text>
</a>
</g>
</g>
<!-- src/lib/main.spec.ts&#45;&gt;src/lib/main.ts -->
<g id="edge1" class="edge">
<title>src/lib/main.spec.ts&#45;&gt;src/lib/main.ts</title>
<path fill="none" stroke="#000000" stroke-width="2" stroke-opacity="0.200000" d="M98.18,-249C100.28,-249 102.38,-249 104.47,-249"/>
<polygon fill="#000000" fill-opacity="0.200000" stroke="#000000" stroke-width="2" stroke-opacity="0.200000" points="104.62,-251.1 110.62,-249 104.62,-246.9 104.62,-251.1"/>
</g>
<!-- src/lib/parser/parseCommandLine.ts -->
<g id="node3" class="node">
<title>src/lib/parser/parseCommandLine.ts</title>
<g id="a_node3"><a xlink:href="src/lib/parser/parseCommandLine.ts" xlink:title="parseCommandLine.ts">
<path fill="#ddfeff" stroke="black" d="M293,-140C293,-140 187,-140 187,-140 184,-140 181,-137 181,-134 181,-134 181,-128 181,-128 181,-125 184,-122 187,-122 187,-122 293,-122 293,-122 296,-122 299,-125 299,-128 299,-128 299,-134 299,-134 299,-137 296,-140 293,-140"/>
<text text-anchor="start" x="189" y="-128.8" font-family="Helvetica,sans-Serif" font-size="9.00">parseCommandLine.ts</text>
</a>
</g>
</g>
<!-- src/lib/main.ts&#45;&gt;src/lib/parser/parseCommandLine.ts -->
<g id="edge2" class="edge">
<title>src/lib/main.ts&#45;&gt;src/lib/parser/parseCommandLine.ts</title>
<path fill="none" stroke="#000000" stroke-width="2" stroke-opacity="0.200000" d="M139.06,-239.78C139.71,-219.22 144.34,-169.44 173,-144 173.74,-143.35 174.5,-142.72 175.28,-142.12"/>
<polygon fill="#000000" fill-opacity="0.200000" stroke="#000000" stroke-width="2" stroke-opacity="0.200000" points="176.84,-143.61 180.71,-138.57 174.54,-140.1 176.84,-143.61"/>
</g>
<!-- src/lib/types.ts -->
<g id="node4" class="node">
<title>src/lib/types.ts</title>
<g id="a_node4"><a xlink:href="src/lib/types.ts" xlink:title="types.ts">
<path fill="#ddfeff" stroke="black" d="M561.5,-258C561.5,-258 519.5,-258 519.5,-258 516.5,-258 513.5,-255 513.5,-252 513.5,-252 513.5,-246 513.5,-246 513.5,-243 516.5,-240 519.5,-240 519.5,-240 561.5,-240 561.5,-240 564.5,-240 567.5,-243 567.5,-246 567.5,-246 567.5,-252 567.5,-252 567.5,-255 564.5,-258 561.5,-258"/>
<text text-anchor="start" x="522" y="-246.8" font-family="Helvetica,sans-Serif" font-size="9.00">types.ts</text>
</a>
</g>
</g>
<!-- src/lib/main.ts&#45;&gt;src/lib/types.ts -->
<g id="edge3" class="edge">
<title>src/lib/main.ts&#45;&gt;src/lib/types.ts</title>
<path fill="none" stroke="#000000" stroke-width="2" stroke-opacity="0.200000" d="M165.28,-249C235.95,-249 429.92,-249 507.15,-249"/>
<polygon fill="#000000" fill-opacity="0.200000" stroke="#000000" stroke-width="2" stroke-opacity="0.200000" points="507.39,-251.1 513.39,-249 507.39,-246.9 507.39,-251.1"/>
</g>
<!-- src/lib/validation/validateConfig.ts -->
<g id="node5" class="node">
<title>src/lib/validation/validateConfig.ts</title>
<g id="a_node5"><a xlink:href="src/lib/validation/validateConfig.ts" xlink:title="validateConfig.ts">
<path fill="#ddfeff" stroke="black" d="M280,-307C280,-307 200,-307 200,-307 197,-307 194,-304 194,-301 194,-301 194,-295 194,-295 194,-292 197,-289 200,-289 200,-289 280,-289 280,-289 283,-289 286,-292 286,-295 286,-295 286,-301 286,-301 286,-304 283,-307 280,-307"/>
<text text-anchor="start" x="202" y="-295.8" font-family="Helvetica,sans-Serif" font-size="9.00">validateConfig.ts</text>
</a>
</g>
</g>
<!-- src/lib/main.ts&#45;&gt;src/lib/validation/validateConfig.ts -->
<g id="edge4" class="edge">
<title>src/lib/main.ts&#45;&gt;src/lib/validation/validateConfig.ts</title>
<path fill="none" stroke="#000000" stroke-width="2" stroke-opacity="0.200000" d="M145.14,-258.22C151.2,-266.57 161.26,-278.52 173,-285 177.56,-287.51 182.53,-289.55 187.63,-291.19"/>
<polygon fill="#000000" fill-opacity="0.200000" stroke="#000000" stroke-width="2" stroke-opacity="0.200000" points="187.31,-293.29 193.66,-292.94 188.49,-289.25 187.31,-293.29"/>
</g>
<!-- src/lib/parser/parseCommandLine.ts&#45;&gt;src/lib/types.ts -->
<g id="edge14" class="edge">
<title>src/lib/parser/parseCommandLine.ts&#45;&gt;src/lib/types.ts</title>
<path fill="none" stroke="#000000" stroke-width="2" stroke-opacity="0.200000" d="M294.94,-140.25C296.39,-141.38 297.75,-142.62 299,-144 324.3,-171.85 282.46,-201.84 309.5,-228 316.5,-234.77 445.4,-243.36 507.1,-247.11"/>
<polygon fill="#000000" fill-opacity="0.200000" stroke="#000000" stroke-width="2" stroke-opacity="0.200000" points="507.1,-249.21 513.22,-247.48 507.35,-245.02 507.1,-249.21"/>
</g>
<!-- src/lib/parser/_types.ts -->
<g id="node6" class="node">
<title>src/lib/parser/_types.ts</title>
<g id="a_node6"><a xlink:href="src/lib/parser/_types.ts" xlink:title="_types.ts">
<path fill="#ddfeff" stroke="black" d="M723,-170C723,-170 678,-170 678,-170 675,-170 672,-167 672,-164 672,-164 672,-158 672,-158 672,-155 675,-152 678,-152 678,-152 723,-152 723,-152 726,-152 729,-155 729,-158 729,-158 729,-164 729,-164 729,-167 726,-170 723,-170"/>
<text text-anchor="start" x="680" y="-158.8" font-family="Helvetica,sans-Serif" font-size="9.00">_types.ts</text>
</a>
</g>
</g>
<!-- src/lib/parser/parseCommandLine.ts&#45;&gt;src/lib/parser/_types.ts -->
<g id="edge15" class="edge">
<title>src/lib/parser/parseCommandLine.ts&#45;&gt;src/lib/parser/_types.ts</title>
<path fill="none" stroke="#000000" stroke-width="2" stroke-opacity="0.200000" d="M275.26,-121.98C286.13,-119.53 298.24,-117.22 309.5,-116 378.43,-108.54 396.34,-111.15 465.5,-116 529.08,-120.46 552.87,-103.18 607.5,-136 612.68,-139.11 610.36,-143.82 615.5,-147 630.38,-156.19 649.44,-159.88 665.65,-161.19"/>
<polygon fill="#000000" fill-opacity="0.200000" stroke="#000000" stroke-width="2" stroke-opacity="0.200000" points="665.81,-163.3 671.93,-161.59 666.08,-159.11 665.81,-163.3"/>
</g>
<!-- src/lib/parser/createNewConfig.ts -->
<g id="node7" class="node">
<title>src/lib/parser/createNewConfig.ts</title>
<g id="a_node7"><a xlink:href="src/lib/parser/createNewConfig.ts" xlink:title="createNewConfig.ts">
<path fill="#ddfeff" stroke="black" d="M587,-51C587,-51 494,-51 494,-51 491,-51 488,-48 488,-45 488,-45 488,-39 488,-39 488,-36 491,-33 494,-33 494,-33 587,-33 587,-33 590,-33 593,-36 593,-39 593,-39 593,-45 593,-45 593,-48 590,-51 587,-51"/>
<text text-anchor="start" x="496" y="-39.8" font-family="Helvetica,sans-Serif" font-size="9.00">createNewConfig.ts</text>
</a>
</g>
</g>
<!-- src/lib/parser/parseCommandLine.ts&#45;&gt;src/lib/parser/createNewConfig.ts -->
<g id="edge16" class="edge">
<title>src/lib/parser/parseCommandLine.ts&#45;&gt;src/lib/parser/createNewConfig.ts</title>
<path fill="none" stroke="#000000" stroke-width="2" stroke-opacity="0.200000" d="M248.28,-121.81C259.71,-108.14 283.26,-82.8 309.5,-71 364.42,-46.32 433.7,-40.58 481.79,-40.07"/>
<polygon fill="#000000" fill-opacity="0.200000" stroke="#000000" stroke-width="2" stroke-opacity="0.200000" points="481.86,-42.17 487.85,-40.04 481.83,-37.97 481.86,-42.17"/>
</g>
<!-- src/lib/parser/makeOptionMaps.ts -->
<g id="node12" class="node">
<title>src/lib/parser/makeOptionMaps.ts</title>
<g id="a_node12"><a xlink:href="src/lib/parser/makeOptionMaps.ts" xlink:title="makeOptionMaps.ts">
<path fill="#ddfeff" stroke="black" d="M430.5,-140C430.5,-140 336.5,-140 336.5,-140 333.5,-140 330.5,-137 330.5,-134 330.5,-134 330.5,-128 330.5,-128 330.5,-125 333.5,-122 336.5,-122 336.5,-122 430.5,-122 430.5,-122 433.5,-122 436.5,-125 436.5,-128 436.5,-128 436.5,-134 436.5,-134 436.5,-137 433.5,-140 430.5,-140"/>
<text text-anchor="start" x="338.5" y="-128.8" font-family="Helvetica,sans-Serif" font-size="9.00">makeOptionMaps.ts</text>
</a>
</g>
</g>
<!-- src/lib/parser/parseCommandLine.ts&#45;&gt;src/lib/parser/makeOptionMaps.ts -->
<g id="edge17" class="edge">
<title>src/lib/parser/parseCommandLine.ts&#45;&gt;src/lib/parser/makeOptionMaps.ts</title>
<path fill="none" stroke="#000000" stroke-width="2" stroke-opacity="0.200000" d="M299.37,-131C307.5,-131 315.85,-131 323.99,-131"/>
<polygon fill="#000000" fill-opacity="0.200000" stroke="#000000" stroke-width="2" stroke-opacity="0.200000" points="324.15,-133.1 330.15,-131 324.15,-128.9 324.15,-133.1"/>
</g>
<!-- src/lib/parser/newConfigFromOptions.ts -->
<g id="node13" class="node">
<title>src/lib/parser/newConfigFromOptions.ts</title>
<g id="a_node13"><a xlink:href="src/lib/parser/newConfigFromOptions.ts" xlink:title="newConfigFromOptions.ts">
<path fill="#ddfeff" stroke="black" d="M444,-95C444,-95 323,-95 323,-95 320,-95 317,-92 317,-89 317,-89 317,-83 317,-83 317,-80 320,-77 323,-77 323,-77 444,-77 444,-77 447,-77 450,-80 450,-83 450,-83 450,-89 450,-89 450,-92 447,-95 444,-95"/>
<text text-anchor="start" x="325" y="-83.8" font-family="Helvetica,sans-Serif" font-size="9.00">newConfigFromOptions.ts</text>
</a>
</g>
</g>
<!-- src/lib/parser/parseCommandLine.ts&#45;&gt;src/lib/parser/newConfigFromOptions.ts -->
<g id="edge18" class="edge">
<title>src/lib/parser/parseCommandLine.ts&#45;&gt;src/lib/parser/newConfigFromOptions.ts</title>
<path fill="none" stroke="#000000" stroke-width="2" stroke-opacity="0.200000" d="M263,-121.96C276.33,-116.65 293.75,-110.02 309.5,-105 318.8,-102.03 328.87,-99.19 338.48,-96.64"/>
<polygon fill="#000000" fill-opacity="0.200000" stroke="#000000" stroke-width="2" stroke-opacity="0.200000" points="339.12,-98.64 344.39,-95.09 338.05,-94.58 339.12,-98.64"/>
</g>
<!-- src/lib/parser/splitOptionsAndOperands.ts -->
<g id="node14" class="node">
<title>src/lib/parser/splitOptionsAndOperands.ts</title>
<g id="a_node14"><a xlink:href="src/lib/parser/splitOptionsAndOperands.ts" xlink:title="splitOptionsAndOperands.ts">
<path fill="#ddfeff" stroke="black" d="M449,-170C449,-170 318,-170 318,-170 315,-170 312,-167 312,-164 312,-164 312,-158 312,-158 312,-155 315,-152 318,-152 318,-152 449,-152 449,-152 452,-152 455,-155 455,-158 455,-158 455,-164 455,-164 455,-167 452,-170 449,-170"/>
<text text-anchor="start" x="320" y="-158.8" font-family="Helvetica,sans-Serif" font-size="9.00">splitOptionsAndOperands.ts</text>
</a>
</g>
</g>
<!-- src/lib/parser/parseCommandLine.ts&#45;&gt;src/lib/parser/splitOptionsAndOperands.ts -->
<g id="edge19" class="edge">
<title>src/lib/parser/parseCommandLine.ts&#45;&gt;src/lib/parser/splitOptionsAndOperands.ts</title>
<path fill="none" stroke="#000000" stroke-width="2" stroke-opacity="0.200000" d="M281.91,-140.05C290.99,-142.03 300.57,-144.1 309.5,-146 316.72,-147.53 324.34,-149.13 331.84,-150.68"/>
<polygon fill="#000000" fill-opacity="0.200000" stroke="#000000" stroke-width="2" stroke-opacity="0.200000" points="331.79,-152.81 338.09,-151.97 332.64,-148.7 331.79,-152.81"/>
</g>
<!-- src/lib/validation/validateConfig.ts&#45;&gt;src/lib/types.ts -->
<g id="edge23" class="edge">
<title>src/lib/validation/validateConfig.ts&#45;&gt;src/lib/types.ts</title>
<path fill="none" stroke="#000000" stroke-width="2" stroke-opacity="0.200000" d="M249.15,-307.35C260.95,-320.1 284.17,-342.35 309.5,-351 375.11,-373.42 403.73,-382.5 465.5,-351 501.64,-332.57 524.25,-287.32 533.97,-263.78"/>
<polygon fill="#000000" fill-opacity="0.200000" stroke="#000000" stroke-width="2" stroke-opacity="0.200000" points="535.99,-264.37 536.27,-258.02 532.09,-262.82 535.99,-264.37"/>
</g>
<!-- src/lib/validation/errors/InvalidConfigPropError.ts -->
<g id="node16" class="node">
<title>src/lib/validation/errors/InvalidConfigPropError.ts</title>
<g id="a_node16"><a xlink:href="src/lib/validation/errors/InvalidConfigPropError.ts" xlink:title="InvalidConfigPropError.ts">
<path fill="#ddfeff" stroke="black" d="M442,-322C442,-322 325,-322 325,-322 322,-322 319,-319 319,-316 319,-316 319,-310 319,-310 319,-307 322,-304 325,-304 325,-304 442,-304 442,-304 445,-304 448,-307 448,-310 448,-310 448,-316 448,-316 448,-319 445,-322 442,-322"/>
<text text-anchor="start" x="327" y="-310.8" font-family="Helvetica,sans-Serif" font-size="9.00">InvalidConfigPropError.ts</text>
</a>
</g>
</g>
<!-- src/lib/validation/validateConfig.ts&#45;&gt;src/lib/validation/errors/InvalidConfigPropError.ts -->
<g id="edge24" class="edge">
<title>src/lib/validation/validateConfig.ts&#45;&gt;src/lib/validation/errors/InvalidConfigPropError.ts</title>
<path fill="none" stroke="#000000" stroke-width="2" stroke-opacity="0.200000" d="M286.16,-302.79C294.72,-303.69 303.86,-304.66 312.97,-305.63"/>
<polygon fill="#000000" fill-opacity="0.200000" stroke="#000000" stroke-width="2" stroke-opacity="0.200000" points="312.75,-307.72 318.94,-306.26 313.2,-303.54 312.75,-307.72"/>
</g>
<!-- src/lib/validation/errors/InvalidOptionSpecError.ts -->
<g id="node17" class="node">
<title>src/lib/validation/errors/InvalidOptionSpecError.ts</title>
<g id="a_node17"><a xlink:href="src/lib/validation/errors/InvalidOptionSpecError.ts" xlink:title="InvalidOptionSpecError.ts">
<path fill="#ddfeff" stroke="black" d="M443.5,-292C443.5,-292 323.5,-292 323.5,-292 320.5,-292 317.5,-289 317.5,-286 317.5,-286 317.5,-280 317.5,-280 317.5,-277 320.5,-274 323.5,-274 323.5,-274 443.5,-274 443.5,-274 446.5,-274 449.5,-277 449.5,-280 449.5,-280 449.5,-286 449.5,-286 449.5,-289 446.5,-292 443.5,-292"/>
<text text-anchor="start" x="325.5" y="-280.8" font-family="Helvetica,sans-Serif" font-size="9.00">InvalidOptionSpecError.ts</text>
</a>
</g>
</g>
<!-- src/lib/validation/validateConfig.ts&#45;&gt;src/lib/validation/errors/InvalidOptionSpecError.ts -->
<g id="edge25" class="edge">
<title>src/lib/validation/validateConfig.ts&#45;&gt;src/lib/validation/errors/InvalidOptionSpecError.ts</title>
<path fill="none" stroke="#000000" stroke-width="2" stroke-opacity="0.200000" d="M286.16,-293.21C294.09,-292.37 302.51,-291.48 310.95,-290.58"/>
<polygon fill="#000000" fill-opacity="0.200000" stroke="#000000" stroke-width="2" stroke-opacity="0.200000" points="311.65,-292.62 317.4,-289.9 311.21,-288.45 311.65,-292.62"/>
</g>
<!-- src/lib/parser/createPartialChangeObj.ts -->
<g id="node8" class="node">
<title>src/lib/parser/createPartialChangeObj.ts</title>
<g id="a_node8"><a xlink:href="src/lib/parser/createPartialChangeObj.ts" xlink:title="createPartialChangeObj.ts">
<path fill="#ddfeff" stroke="black" d="M601.5,-95C601.5,-95 479.5,-95 479.5,-95 476.5,-95 473.5,-92 473.5,-89 473.5,-89 473.5,-83 473.5,-83 473.5,-80 476.5,-77 479.5,-77 479.5,-77 601.5,-77 601.5,-77 604.5,-77 607.5,-80 607.5,-83 607.5,-83 607.5,-89 607.5,-89 607.5,-92 604.5,-95 601.5,-95"/>
<text text-anchor="start" x="481.5" y="-83.8" font-family="Helvetica,sans-Serif" font-size="9.00">createPartialChangeObj.ts</text>
</a>
</g>
</g>
<!-- src/lib/parser/createPartialChangeObj.ts&#45;&gt;src/lib/parser/_types.ts -->
<g id="edge5" class="edge">
<title>src/lib/parser/createPartialChangeObj.ts&#45;&gt;src/lib/parser/_types.ts</title>
<path fill="none" stroke="#000000" stroke-width="2" stroke-opacity="0.200000" d="M595.67,-95.01C600.07,-97.38 604.12,-100.33 607.5,-104 620.67,-118.3 601.63,-133.38 615.5,-147 628.47,-159.73 648.35,-163.46 665.51,-163.9"/>
<polygon fill="#000000" fill-opacity="0.200000" stroke="#000000" stroke-width="2" stroke-opacity="0.200000" points="665.69,-166 671.69,-163.93 665.7,-161.8 665.69,-166"/>
</g>
<!-- src/lib/parser/errors/ArgumentMissingError.ts -->
<g id="node9" class="node">
<title>src/lib/parser/errors/ArgumentMissingError.ts</title>
<g id="a_node9"><a xlink:href="src/lib/parser/errors/ArgumentMissingError.ts" xlink:title="ArgumentMissingError.ts">
<path fill="#ddfeff" stroke="black" d="M758.5,-118C758.5,-118 642.5,-118 642.5,-118 639.5,-118 636.5,-115 636.5,-112 636.5,-112 636.5,-106 636.5,-106 636.5,-103 639.5,-100 642.5,-100 642.5,-100 758.5,-100 758.5,-100 761.5,-100 764.5,-103 764.5,-106 764.5,-106 764.5,-112 764.5,-112 764.5,-115 761.5,-118 758.5,-118"/>
<text text-anchor="start" x="644.5" y="-106.8" font-family="Helvetica,sans-Serif" font-size="9.00">ArgumentMissingError.ts</text>
</a>
</g>
</g>
<!-- src/lib/parser/createPartialChangeObj.ts&#45;&gt;src/lib/parser/errors/ArgumentMissingError.ts -->
<g id="edge6" class="edge">
<title>src/lib/parser/createPartialChangeObj.ts&#45;&gt;src/lib/parser/errors/ArgumentMissingError.ts</title>
<path fill="none" stroke="#000000" stroke-width="2" stroke-opacity="0.200000" d="M603.49,-95.02C612.64,-96.36 622.11,-97.73 631.37,-99.08"/>
<polygon fill="#000000" fill-opacity="0.200000" stroke="#000000" stroke-width="2" stroke-opacity="0.200000" points="631.19,-101.18 637.43,-99.96 631.79,-97.02 631.19,-101.18"/>
</g>
<!-- src/lib/parser/errors/ArgumentNotANumberError.ts -->
<g id="node10" class="node">
<title>src/lib/parser/errors/ArgumentNotANumberError.ts</title>
<g id="a_node10"><a xlink:href="src/lib/parser/errors/ArgumentNotANumberError.ts" xlink:title="ArgumentNotANumberError.ts">
<path fill="#ddfeff" stroke="black" d="M771.5,-88C771.5,-88 629.5,-88 629.5,-88 626.5,-88 623.5,-85 623.5,-82 623.5,-82 623.5,-76 623.5,-76 623.5,-73 626.5,-70 629.5,-70 629.5,-70 771.5,-70 771.5,-70 774.5,-70 777.5,-73 777.5,-76 777.5,-76 777.5,-82 777.5,-82 777.5,-85 774.5,-88 771.5,-88"/>
<text text-anchor="start" x="631.5" y="-76.8" font-family="Helvetica,sans-Serif" font-size="9.00">ArgumentNotANumberError.ts</text>
</a>
</g>
</g>
<!-- src/lib/parser/createPartialChangeObj.ts&#45;&gt;src/lib/parser/errors/ArgumentNotANumberError.ts -->
<g id="edge7" class="edge">
<title>src/lib/parser/createPartialChangeObj.ts&#45;&gt;src/lib/parser/errors/ArgumentNotANumberError.ts</title>
<path fill="none" stroke="#000000" stroke-width="2" stroke-opacity="0.200000" d="M607.59,-83.07C610.7,-82.93 613.84,-82.79 616.99,-82.66"/>
<polygon fill="#000000" fill-opacity="0.200000" stroke="#000000" stroke-width="2" stroke-opacity="0.200000" points="617.56,-84.73 623.46,-82.37 617.37,-80.54 617.56,-84.73"/>
</g>
<!-- src/lib/parser/errors/UnknownOptionError.ts -->
<g id="node11" class="node">
<title>src/lib/parser/errors/UnknownOptionError.ts</title>
<g id="a_node11"><a xlink:href="src/lib/parser/errors/UnknownOptionError.ts" xlink:title="UnknownOptionError.ts">
<path fill="#ddfeff" stroke="black" d="M755.5,-58C755.5,-58 645.5,-58 645.5,-58 642.5,-58 639.5,-55 639.5,-52 639.5,-52 639.5,-46 639.5,-46 639.5,-43 642.5,-40 645.5,-40 645.5,-40 755.5,-40 755.5,-40 758.5,-40 761.5,-43 761.5,-46 761.5,-46 761.5,-52 761.5,-52 761.5,-55 758.5,-58 755.5,-58"/>
<text text-anchor="start" x="647.5" y="-46.8" font-family="Helvetica,sans-Serif" font-size="9.00">UnknownOptionError.ts</text>
</a>
</g>
</g>
<!-- src/lib/parser/makeOptionMaps.ts&#45;&gt;src/lib/types.ts -->
<g id="edge8" class="edge">
<title>src/lib/parser/makeOptionMaps.ts&#45;&gt;src/lib/types.ts</title>
<path fill="none" stroke="#000000" stroke-width="2" stroke-opacity="0.200000" d="M436.69,-131.14C447.47,-133.57 457.84,-138.08 465.5,-146 482.06,-163.12 461.33,-178.52 473.5,-199 483.22,-215.36 500.55,-228.18 515.01,-236.74"/>
<polygon fill="#000000" fill-opacity="0.200000" stroke="#000000" stroke-width="2" stroke-opacity="0.200000" points="514.34,-238.77 520.59,-239.92 516.42,-235.12 514.34,-238.77"/>
</g>
<!-- src/lib/parser/makeOptionMaps.ts&#45;&gt;src/lib/parser/_types.ts -->
<g id="edge9" class="edge">
<title>src/lib/parser/makeOptionMaps.ts&#45;&gt;src/lib/parser/_types.ts</title>
<path fill="none" stroke="#000000" stroke-width="2" stroke-opacity="0.200000" d="M436.52,-135.95C501.46,-142.14 610.7,-152.54 665.7,-157.78"/>
<polygon fill="#000000" fill-opacity="0.200000" stroke="#000000" stroke-width="2" stroke-opacity="0.200000" points="665.64,-159.88 671.81,-158.36 666.04,-155.7 665.64,-159.88"/>
</g>
<!-- src/lib/parser/newConfigFromOptions.ts&#45;&gt;src/lib/parser/_types.ts -->
<g id="edge10" class="edge">
<title>src/lib/parser/newConfigFromOptions.ts&#45;&gt;src/lib/parser/_types.ts</title>
<path fill="none" stroke="#000000" stroke-width="2" stroke-opacity="0.200000" d="M435.74,-95C448.09,-97.07 461.25,-99.19 473.5,-101 503.19,-105.38 584.81,-98.35 607.5,-118 617.61,-126.75 605.57,-138.05 615.5,-147 628.9,-159.08 648.61,-162.82 665.57,-163.43"/>
<polygon fill="#000000" fill-opacity="0.200000" stroke="#000000" stroke-width="2" stroke-opacity="0.200000" points="665.65,-165.53 671.68,-163.53 665.71,-161.33 665.65,-165.53"/>
</g>
<!-- src/lib/parser/newConfigFromOptions.ts&#45;&gt;src/lib/parser/createNewConfig.ts -->
<g id="edge11" class="edge">
<title>src/lib/parser/newConfigFromOptions.ts&#45;&gt;src/lib/parser/createNewConfig.ts</title>
<path fill="none" stroke="#000000" stroke-width="2" stroke-opacity="0.200000" d="M414.94,-76.96C432.12,-71.9 453.98,-65.51 473.5,-60 482.04,-57.59 491.23,-55.05 499.94,-52.66"/>
<polygon fill="#000000" fill-opacity="0.200000" stroke="#000000" stroke-width="2" stroke-opacity="0.200000" points="500.66,-54.65 505.89,-51.04 499.55,-50.59 500.66,-54.65"/>
</g>
<!-- src/lib/parser/newConfigFromOptions.ts&#45;&gt;src/lib/parser/createPartialChangeObj.ts -->
<g id="edge12" class="edge">
<title>src/lib/parser/newConfigFromOptions.ts&#45;&gt;src/lib/parser/createPartialChangeObj.ts</title>
<path fill="none" stroke="#000000" stroke-width="2" stroke-opacity="0.200000" d="M450.23,-86C455.81,-86 461.47,-86 467.09,-86"/>
<polygon fill="#000000" fill-opacity="0.200000" stroke="#000000" stroke-width="2" stroke-opacity="0.200000" points="467.17,-88.1 473.17,-86 467.17,-83.9 467.17,-88.1"/>
</g>
<!-- src/lib/parser/newConfigFromOptions.ts&#45;&gt;src/lib/parser/errors/UnknownOptionError.ts -->
<g id="edge13" class="edge">
<title>src/lib/parser/newConfigFromOptions.ts&#45;&gt;src/lib/parser/errors/UnknownOptionError.ts</title>
<path fill="none" stroke="#000000" stroke-width="2" stroke-opacity="0.200000" d="M434.3,-76.97C447.05,-74.84 460.76,-72.69 473.5,-71 503.27,-67.05 577.67,-60.01 633.03,-54.95"/>
<polygon fill="#000000" fill-opacity="0.200000" stroke="#000000" stroke-width="2" stroke-opacity="0.200000" points="633.55,-57.01 639.34,-54.38 633.17,-52.83 633.55,-57.01"/>
</g>
<!-- src/lib/sampleConfig.ts -->
<g id="node15" class="node">
<title>src/lib/sampleConfig.ts</title>
<g id="a_node15"><a xlink:href="src/lib/sampleConfig.ts" xlink:title="sampleConfig.ts">
<path fill="#ddfeff" stroke="black" d="M422,-222C422,-222 345,-222 345,-222 342,-222 339,-219 339,-216 339,-216 339,-210 339,-210 339,-207 342,-204 345,-204 345,-204 422,-204 422,-204 425,-204 428,-207 428,-210 428,-210 428,-216 428,-216 428,-219 425,-222 422,-222"/>
<text text-anchor="start" x="347" y="-210.8" font-family="Helvetica,sans-Serif" font-size="9.00">sampleConfig.ts</text>
</a>
</g>
</g>
<!-- src/lib/sampleConfig.ts&#45;&gt;src/lib/types.ts -->
<g id="edge20" class="edge">
<title>src/lib/sampleConfig.ts&#45;&gt;src/lib/types.ts</title>
<path fill="none" stroke="#000000" stroke-width="2" stroke-opacity="0.200000" d="M426.16,-222.09C438.81,-224.9 452.73,-228.03 465.5,-231 479.11,-234.17 494.1,-237.79 507.01,-240.95"/>
<polygon fill="#000000" fill-opacity="0.200000" stroke="#000000" stroke-width="2" stroke-opacity="0.200000" points="506.83,-243.07 513.16,-242.46 507.83,-238.99 506.83,-243.07"/>
</g>
<!-- src/lib/validation/errors/InvalidConfigPropError.ts&#45;&gt;src/lib/types.ts -->
<g id="edge21" class="edge">
<title>src/lib/validation/errors/InvalidConfigPropError.ts&#45;&gt;src/lib/types.ts</title>
<path fill="none" stroke="#000000" stroke-width="2" stroke-opacity="0.200000" d="M447.57,-303.91C453.73,-302.26 459.8,-300.3 465.5,-298 487.38,-289.16 509.58,-273.35 523.87,-262.08"/>
<polygon fill="#000000" fill-opacity="0.200000" stroke="#000000" stroke-width="2" stroke-opacity="0.200000" points="525.4,-263.55 528.76,-258.16 522.77,-260.27 525.4,-263.55"/>
</g>
<!-- src/lib/validation/errors/InvalidOptionSpecError.ts&#45;&gt;src/lib/types.ts -->
<g id="edge22" class="edge">
<title>src/lib/validation/errors/InvalidOptionSpecError.ts&#45;&gt;src/lib/types.ts</title>
<path fill="none" stroke="#000000" stroke-width="2" stroke-opacity="0.200000" d="M445.68,-273.97C452.39,-272.74 459.1,-271.42 465.5,-270 479.41,-266.92 494.57,-262.76 507.53,-258.96"/>
<polygon fill="#000000" fill-opacity="0.200000" stroke="#000000" stroke-width="2" stroke-opacity="0.200000" points="508.17,-260.96 513.32,-257.24 506.97,-256.93 508.17,-260.96"/>
</g>
</g>
</svg>
