<?xml version="1.0" encoding="UTF-8" standalone="no"?>
<!DOCTYPE svg PUBLIC "-//W3C//DTD SVG 1.1//EN"
 "http://www.w3.org/Graphics/SVG/1.1/DTD/svg11.dtd">
<!-- Generated by graphviz version 2.43.0 (0)
 -->
<!-- Title: dependency&#45;cruiser output Pages: 1 -->
<svg width="827pt" height="576pt"
 viewBox="0.00 0.00 826.50 576.00" xmlns="http://www.w3.org/2000/svg" xmlns:xlink="http://www.w3.org/1999/xlink">
<g id="graph0" class="graph" transform="scale(1 1) rotate(0) translate(4 572)">
<title>dependency&#45;cruiser output</title>
<polygon fill="white" stroke="transparent" points="-4,4 -4,-572 822.5,-572 822.5,4 -4,4"/>
<g id="clust1" class="cluster">
<title>cluster_src</title>
<path fill="#ffffff" stroke="black" stroke-width="2" d="M20,-56C20,-56 798.5,-56 798.5,-56 804.5,-56 810.5,-62 810.5,-68 810.5,-68 810.5,-548 810.5,-548 810.5,-554 804.5,-560 798.5,-560 798.5,-560 20,-560 20,-560 14,-560 8,-554 8,-548 8,-548 8,-68 8,-68 8,-62 14,-56 20,-56"/>
<text text-anchor="middle" x="409.25" y="-548.8" font-family="Helvetica,sans-Serif" font-weight="bold" font-size="9.00">src</text>
</g>
<g id="clust2" class="cluster">
<title>cluster_src/cli</title>
<path fill="#ffffff" stroke="black" stroke-width="2" d="M30,-64C30,-64 92,-64 92,-64 98,-64 104,-70 104,-76 104,-76 104,-134 104,-134 104,-140 98,-146 92,-146 92,-146 30,-146 30,-146 24,-146 18,-140 18,-134 18,-134 18,-76 18,-76 18,-70 24,-64 30,-64"/>
<text text-anchor="middle" x="61" y="-134.8" font-family="Helvetica,sans-Serif" font-weight="bold" font-size="9.00">cli</text>
</g>
<g id="clust3" class="cluster">
<title>cluster_src/lib</title>
<path fill="#ffffff" stroke="black" stroke-width="2" d="M28,-154C28,-154 790.5,-154 790.5,-154 796.5,-154 802.5,-160 802.5,-166 802.5,-166 802.5,-522 802.5,-522 802.5,-528 796.5,-534 790.5,-534 790.5,-534 28,-534 28,-534 22,-534 16,-528 16,-522 16,-522 16,-166 16,-166 16,-160 22,-154 28,-154"/>
<text text-anchor="middle" x="409.25" y="-522.8" font-family="Helvetica,sans-Serif" font-weight="bold" font-size="9.00">lib</text>
</g>
<g id="clust4" class="cluster">
<title>cluster_src/lib/parser</title>
<path fill="#ffffff" stroke="black" stroke-width="2" d="M186,-162C186,-162 782.5,-162 782.5,-162 788.5,-162 794.5,-168 794.5,-174 794.5,-174 794.5,-322 794.5,-322 794.5,-328 788.5,-334 782.5,-334 782.5,-334 186,-334 186,-334 180,-334 174,-328 174,-322 174,-322 174,-174 174,-174 174,-168 180,-162 186,-162"/>
<text text-anchor="middle" x="484.25" y="-322.8" font-family="Helvetica,sans-Serif" font-weight="bold" font-size="9.00">parser</text>
</g>
<g id="clust5" class="cluster">
<title>cluster_src/lib/parser/errors</title>
<path fill="#ffffff" stroke="black" stroke-width="2" d="M628.5,-170C628.5,-170 774.5,-170 774.5,-170 780.5,-170 786.5,-176 786.5,-182 786.5,-182 786.5,-270 786.5,-270 786.5,-276 780.5,-282 774.5,-282 774.5,-282 628.5,-282 628.5,-282 622.5,-282 616.5,-276 616.5,-270 616.5,-270 616.5,-182 616.5,-182 616.5,-176 622.5,-170 628.5,-170"/>
<text text-anchor="middle" x="701.5" y="-270.8" font-family="Helvetica,sans-Serif" font-weight="bold" font-size="9.00">errors</text>
</g>
<g id="clust6" class="cluster">
<title>cluster_src/lib/validation</title>
<path fill="#ffffff" stroke="black" stroke-width="2" d="M199,-352C199,-352 454.5,-352 454.5,-352 460.5,-352 466.5,-358 466.5,-364 466.5,-364 466.5,-456 466.5,-456 466.5,-462 460.5,-468 454.5,-468 454.5,-468 199,-468 199,-468 193,-468 187,-462 187,-456 187,-456 187,-364 187,-364 187,-358 193,-352 199,-352"/>
<text text-anchor="middle" x="326.75" y="-456.8" font-family="Helvetica,sans-Serif" font-weight="bold" font-size="9.00">validation</text>
</g>
<g id="clust7" class="cluster">
<title>cluster_src/lib/validation/errors</title>
<path fill="#ffffff" stroke="black" stroke-width="2" d="M322.5,-360C322.5,-360 446.5,-360 446.5,-360 452.5,-360 458.5,-366 458.5,-372 458.5,-372 458.5,-430 458.5,-430 458.5,-436 452.5,-442 446.5,-442 446.5,-442 322.5,-442 322.5,-442 316.5,-442 310.5,-436 310.5,-430 310.5,-430 310.5,-372 310.5,-372 310.5,-366 316.5,-360 322.5,-360"/>
<text text-anchor="middle" x="384.5" y="-430.8" font-family="Helvetica,sans-Serif" font-weight="bold" font-size="9.00">errors</text>
</g>
<!-- console -->
<g id="node1" class="node">
<title>console</title>
<g id="a_node1"><a xlink:title="console">
<path fill="#ffffcc" stroke="grey" d="M160,-48C160,-48 118,-48 118,-48 115,-48 112,-45 112,-42 112,-42 112,-36 112,-36 112,-33 115,-30 118,-30 118,-30 160,-30 160,-30 163,-30 166,-33 166,-36 166,-36 166,-42 166,-42 166,-45 163,-48 160,-48"/>
<text text-anchor="middle" x="139" y="-36.8" font-family="Helvetica,sans-Serif" font-size="9.00" fill="grey">console</text>
</a>
</g>
</g>
<!-- process -->
<g id="node2" class="node">
<title>process</title>
<g id="a_node2"><a xlink:title="process">
<path fill="#ffffcc" stroke="grey" d="M160,-18C160,-18 118,-18 118,-18 115,-18 112,-15 112,-12 112,-12 112,-6 112,-6 112,-3 115,0 118,0 118,0 160,0 160,0 163,0 166,-3 166,-6 166,-6 166,-12 166,-12 166,-15 163,-18 160,-18"/>
<text text-anchor="middle" x="139" y="-6.8" font-family="Helvetica,sans-Serif" font-size="9.00" fill="grey">process</text>
</a>
</g>
</g>
<!-- src/cli/example.cjs -->
<g id="node3" class="node">
<title>src/cli/example.cjs</title>
<g id="a_node3"><a xlink:href="src/cli/example.cjs" xlink:title="example.cjs">
<path fill="#ffffcc" stroke="black" d="M90,-120C90,-120 32,-120 32,-120 29,-120 26,-117 26,-114 26,-114 26,-108 26,-108 26,-105 29,-102 32,-102 32,-102 90,-102 90,-102 93,-102 96,-105 96,-108 96,-108 96,-114 96,-114 96,-117 93,-120 90,-120"/>
<text text-anchor="start" x="34" y="-108.8" font-family="Helvetica,sans-Serif" font-size="9.00">example.cjs</text>
</a>
</g>
</g>
<!-- src/cli/example.cjs&#45;&gt;console -->
<g id="edge2" class="edge">
<title>src/cli/example.cjs&#45;&gt;console</title>
<path fill="none" stroke="#000000" stroke-dasharray="5,2" stroke-opacity="0.200000" d="M94.86,-101.84C98.13,-100.19 101.25,-98.26 104,-96 117.62,-84.81 127.1,-66.64 132.53,-53.83"/>
<polygon fill="#000000" fill-opacity="0.200000" stroke="#000000" stroke-opacity="0.200000" points="134.57,-54.37 134.87,-48.02 130.68,-52.8 134.57,-54.37"/>
</g>
<!-- src/cli/example.cjs&#45;&gt;process -->
<g id="edge3" class="edge">
<title>src/cli/example.cjs&#45;&gt;process</title>
<path fill="none" stroke="#000000" stroke-dasharray="5,2" stroke-opacity="0.200000" d="M96.36,-102.67C99.26,-100.87 101.89,-98.67 104,-96 123.97,-70.75 94.38,-50.95 112,-24 112.37,-23.43 112.77,-22.88 113.2,-22.36"/>
<polygon fill="#000000" fill-opacity="0.200000" stroke="#000000" stroke-opacity="0.200000" points="114.76,-23.76 117.61,-18.07 111.84,-20.75 114.76,-23.76"/>
</g>
<!-- src/lib/main.ts -->
<g id="node4" class="node">
<title>src/lib/main.ts</title>
<g id="a_node4"><a xlink:href="src/lib/main.ts" xlink:title="main.ts">
<path fill="#ddfeff" stroke="black" d="M160,-267C160,-267 118,-267 118,-267 115,-267 112,-264 112,-261 112,-261 112,-255 112,-255 112,-252 115,-249 118,-249 118,-249 160,-249 160,-249 163,-249 166,-252 166,-255 166,-255 166,-261 166,-261 166,-264 163,-267 160,-267"/>
<text text-anchor="start" x="122" y="-255.8" font-family="Helvetica,sans-Serif" font-size="9.00">main.ts</text>
</a>
</g>
</g>
<!-- src/cli/example.cjs&#45;&gt;src/lib/main.ts -->
<g id="edge1" class="edge">
<title>src/cli/example.cjs&#45;&gt;src/lib/main.ts</title>
<path fill="none" stroke="#000000" stroke-width="2" stroke-dasharray="5,2" stroke-opacity="0.200000" d="M74.67,-120.21C83.99,-127.59 96.31,-138.7 104,-151 122.45,-180.51 131.7,-220.9 135.61,-242.64"/>
<polygon fill="#000000" fill-opacity="0.200000" stroke="#000000" stroke-width="2" stroke-opacity="0.200000" points="133.58,-243.2 136.66,-248.76 137.72,-242.49 133.58,-243.2"/>
</g>
<!-- src/lib/parser/parseCommandLine.ts -->
<g id="node7" class="node">
<title>src/lib/parser/parseCommandLine.ts</title>
<g id="a_node7"><a xlink:href="src/lib/parser/parseCommandLine.ts" xlink:title="parseCommandLine.ts">
<path fill="#ddfeff" stroke="black" d="M294,-267C294,-267 188,-267 188,-267 185,-267 182,-264 182,-261 182,-261 182,-255 182,-255 182,-252 185,-249 188,-249 188,-249 294,-249 294,-249 297,-249 300,-252 300,-255 300,-255 300,-261 300,-261 300,-264 297,-267 294,-267"/>
<text text-anchor="start" x="190" y="-255.8" font-family="Helvetica,sans-Serif" font-size="9.00">parseCommandLine.ts</text>
</a>
</g>
</g>
<!-- src/lib/main.ts&#45;&gt;src/lib/parser/parseCommandLine.ts -->
<g id="edge8" class="edge">
<title>src/lib/main.ts&#45;&gt;src/lib/parser/parseCommandLine.ts</title>
<path fill="none" stroke="#000000" stroke-width="2" stroke-opacity="0.200000" d="M166.01,-258C169.12,-258 172.4,-258 175.76,-258"/>
<polygon fill="#000000" fill-opacity="0.200000" stroke="#000000" stroke-width="2" stroke-opacity="0.200000" points="175.91,-260.1 181.91,-258 175.91,-255.9 175.91,-260.1"/>
</g>
<!-- src/lib/types.ts -->
<g id="node8" class="node">
<title>src/lib/types.ts</title>
<g id="a_node8"><a xlink:href="src/lib/types.ts" xlink:title="types.ts">
<path fill="#ddfeff" stroke="black" d="M562.5,-386C562.5,-386 520.5,-386 520.5,-386 517.5,-386 514.5,-383 514.5,-380 514.5,-380 514.5,-374 514.5,-374 514.5,-371 517.5,-368 520.5,-368 520.5,-368 562.5,-368 562.5,-368 565.5,-368 568.5,-371 568.5,-374 568.5,-374 568.5,-380 568.5,-380 568.5,-383 565.5,-386 562.5,-386"/>
<text text-anchor="start" x="523" y="-374.8" font-family="Helvetica,sans-Serif" font-size="9.00">types.ts</text>
</a>
</g>
</g>
<!-- src/lib/main.ts&#45;&gt;src/lib/types.ts -->
<g id="edge9" class="edge">
<title>src/lib/main.ts&#45;&gt;src/lib/types.ts</title>
<path fill="none" stroke="#000000" stroke-width="2" stroke-opacity="0.200000" d="M140.93,-267.24C143.18,-284.28 150.61,-320.43 174,-337 187.29,-346.42 450.44,-354.31 466.5,-357 480.5,-359.35 495.68,-363.21 508.63,-366.92"/>
<polygon fill="#000000" fill-opacity="0.200000" stroke="#000000" stroke-width="2" stroke-opacity="0.200000" points="508.06,-368.94 514.41,-368.61 509.23,-364.91 508.06,-368.94"/>
</g>
<!-- src/lib/validation/validateConfig.ts -->
<g id="node9" class="node">
<title>src/lib/validation/validateConfig.ts</title>
<g id="a_node9"><a xlink:href="src/lib/validation/validateConfig.ts" xlink:title="validateConfig.ts">
<path fill="#ddfeff" stroke="black" d="M281,-401C281,-401 201,-401 201,-401 198,-401 195,-398 195,-395 195,-395 195,-389 195,-389 195,-386 198,-383 201,-383 201,-383 281,-383 281,-383 284,-383 287,-386 287,-389 287,-389 287,-395 287,-395 287,-398 284,-401 281,-401"/>
<text text-anchor="start" x="203" y="-389.8" font-family="Helvetica,sans-Serif" font-size="9.00">validateConfig.ts</text>
</a>
</g>
</g>
<!-- src/lib/main.ts&#45;&gt;src/lib/validation/validateConfig.ts -->
<g id="edge10" class="edge">
<title>src/lib/main.ts&#45;&gt;src/lib/validation/validateConfig.ts</title>
<path fill="none" stroke="#000000" stroke-width="2" stroke-opacity="0.200000" d="M139.59,-267.21C139.12,-289.89 141.3,-348.8 174,-379 178.38,-383.04 183.63,-385.99 189.23,-388.12"/>
<polygon fill="#000000" fill-opacity="0.200000" stroke="#000000" stroke-width="2" stroke-opacity="0.200000" points="188.58,-390.11 194.94,-389.98 189.89,-386.12 188.58,-390.11"/>
</g>
<!-- src/cli/example.ts -->
<g id="node5" class="node">
<title>src/cli/example.ts</title>
<g id="a_node5"><a xlink:href="src/cli/example.ts" xlink:title="example.ts">
<path fill="#ddfeff" stroke="black" d="M88,-90C88,-90 34,-90 34,-90 31,-90 28,-87 28,-84 28,-84 28,-78 28,-78 28,-75 31,-72 34,-72 34,-72 88,-72 88,-72 91,-72 94,-75 94,-78 94,-78 94,-84 94,-84 94,-87 91,-90 88,-90"/>
<text text-anchor="start" x="36" y="-78.8" font-family="Helvetica,sans-Serif" font-size="9.00">example.ts</text>
</a>
</g>
</g>
<!-- src/cli/example.ts&#45;&gt;console -->
<g id="edge5" class="edge">
<title>src/cli/example.ts&#45;&gt;console</title>
<path fill="none" stroke="#000000" stroke-dasharray="5,2" stroke-opacity="0.200000" d="M78.49,-71.89C89.55,-65.78 104.22,-57.67 116.23,-51.03"/>
<polygon fill="#000000" fill-opacity="0.200000" stroke="#000000" stroke-opacity="0.200000" points="117.31,-52.84 121.54,-48.1 115.27,-49.16 117.31,-52.84"/>
</g>
<!-- src/cli/example.ts&#45;&gt;process -->
<g id="edge6" class="edge">
<title>src/cli/example.ts&#45;&gt;process</title>
<path fill="none" stroke="#000000" stroke-dasharray="5,2" stroke-opacity="0.200000" d="M68.65,-71.67C77.56,-59.64 94.29,-38.53 112,-24 113.05,-23.14 114.15,-22.3 115.29,-21.49"/>
<polygon fill="#000000" fill-opacity="0.200000" stroke="#000000" stroke-opacity="0.200000" points="116.57,-23.15 120.41,-18.09 114.25,-19.65 116.57,-23.15"/>
</g>
<!-- src/cli/example.ts&#45;&gt;src/lib/main.ts -->
<g id="edge4" class="edge">
<title>src/cli/example.ts&#45;&gt;src/lib/main.ts</title>
<path fill="none" stroke="#000000" stroke-width="2" stroke-opacity="0.200000" d="M94.05,-88.39C97.79,-90.36 101.25,-92.85 104,-96 123.12,-117.92 133.26,-206.44 136.67,-242.55"/>
<polygon fill="#000000" fill-opacity="0.200000" stroke="#000000" stroke-width="2" stroke-opacity="0.200000" points="134.59,-242.87 137.23,-248.66 138.77,-242.49 134.59,-242.87"/>
</g>
<!-- src/lib/main.spec.ts -->
<g id="node6" class="node">
<title>src/lib/main.spec.ts</title>
<g id="a_node6"><a xlink:href="src/lib/main.spec.ts" xlink:title="main.spec.ts">
<path fill="#ddfeff" stroke="black" d="M92,-267C92,-267 30,-267 30,-267 27,-267 24,-264 24,-261 24,-261 24,-255 24,-255 24,-252 27,-249 30,-249 30,-249 92,-249 92,-249 95,-249 98,-252 98,-255 98,-255 98,-261 98,-261 98,-264 95,-267 92,-267"/>
<text text-anchor="start" x="32" y="-255.8" font-family="Helvetica,sans-Serif" font-size="9.00">main.spec.ts</text>
</a>
</g>
</g>
<!-- src/lib/main.spec.ts&#45;&gt;src/lib/main.ts -->
<g id="edge7" class="edge">
<title>src/lib/main.spec.ts&#45;&gt;src/lib/main.ts</title>
<path fill="none" stroke="#000000" stroke-width="2" stroke-opacity="0.200000" d="M98.22,-258C100.66,-258 103.1,-258 105.52,-258"/>
<polygon fill="#000000" fill-opacity="0.200000" stroke="#000000" stroke-width="2" stroke-opacity="0.200000" points="105.82,-260.1 111.82,-258 105.82,-255.9 105.82,-260.1"/>
</g>
<!-- src/lib/parser/parseCommandLine.ts&#45;&gt;src/lib/types.ts -->
<g id="edge20" class="edge">
<title>src/lib/parser/parseCommandLine.ts&#45;&gt;src/lib/types.ts</title>
<path fill="none" stroke="#000000" stroke-width="2" stroke-opacity="0.200000" d="M295.24,-267.09C296.93,-268.26 298.53,-269.55 300,-271 314.04,-284.78 296.04,-300.66 310.5,-314 362.11,-361.61 399.77,-317.14 466.5,-339 485.76,-345.31 506.15,-356.13 520.64,-364.61"/>
<polygon fill="#000000" fill-opacity="0.200000" stroke="#000000" stroke-width="2" stroke-opacity="0.200000" points="519.85,-366.58 526.08,-367.85 522,-362.97 519.85,-366.58"/>
</g>
<!-- src/lib/parser/_types.ts -->
<g id="node10" class="node">
<title>src/lib/parser/_types.ts</title>
<g id="a_node10"><a xlink:href="src/lib/parser/_types.ts" xlink:title="_types.ts">
<path fill="#ddfeff" stroke="black" d="M724,-308C724,-308 679,-308 679,-308 676,-308 673,-305 673,-302 673,-302 673,-296 673,-296 673,-293 676,-290 679,-290 679,-290 724,-290 724,-290 727,-290 730,-293 730,-296 730,-296 730,-302 730,-302 730,-305 727,-308 724,-308"/>
<text text-anchor="start" x="681" y="-296.8" font-family="Helvetica,sans-Serif" font-size="9.00">_types.ts</text>
</a>
</g>
</g>
<!-- src/lib/parser/parseCommandLine.ts&#45;&gt;src/lib/parser/_types.ts -->
<g id="edge21" class="edge">
<title>src/lib/parser/parseCommandLine.ts&#45;&gt;src/lib/parser/_types.ts</title>
<path fill="none" stroke="#000000" stroke-width="2" stroke-opacity="0.200000" d="M300.29,-254.36C303.74,-254.22 307.17,-254.1 310.5,-254 379.8,-251.98 397.34,-249.15 466.5,-254 530.08,-258.46 553.87,-241.18 608.5,-274 613.68,-277.11 611.36,-281.82 616.5,-285 631.38,-294.19 650.44,-297.88 666.65,-299.19"/>
<polygon fill="#000000" fill-opacity="0.200000" stroke="#000000" stroke-width="2" stroke-opacity="0.200000" points="666.81,-301.3 672.93,-299.59 667.08,-297.11 666.81,-301.3"/>
</g>
<!-- src/lib/parser/createNewConfig.ts -->
<g id="node11" class="node">
<title>src/lib/parser/createNewConfig.ts</title>
<g id="a_node11"><a xlink:href="src/lib/parser/createNewConfig.ts" xlink:title="createNewConfig.ts">
<path fill="#ddfeff" stroke="black" d="M588,-189C588,-189 495,-189 495,-189 492,-189 489,-186 489,-183 489,-183 489,-177 489,-177 489,-174 492,-171 495,-171 495,-171 588,-171 588,-171 591,-171 594,-174 594,-177 594,-177 594,-183 594,-183 594,-186 591,-189 588,-189"/>
<text text-anchor="start" x="497" y="-177.8" font-family="Helvetica,sans-Serif" font-size="9.00">createNewConfig.ts</text>
</a>
</g>
</g>
<!-- src/lib/parser/parseCommandLine.ts&#45;&gt;src/lib/parser/createNewConfig.ts -->
<g id="edge22" class="edge">
<title>src/lib/parser/parseCommandLine.ts&#45;&gt;src/lib/parser/createNewConfig.ts</title>
<path fill="none" stroke="#000000" stroke-width="2" stroke-opacity="0.200000" d="M251.29,-248.99C263.68,-237.58 286.81,-218.28 310.5,-209 366.39,-187.12 435.21,-180.89 482.93,-179.5"/>
<polygon fill="#000000" fill-opacity="0.200000" stroke="#000000" stroke-width="2" stroke-opacity="0.200000" points="482.99,-181.6 488.93,-179.35 482.88,-177.4 482.99,-181.6"/>
</g>
<!-- src/lib/parser/makeOptionMaps.ts -->
<g id="node16" class="node">
<title>src/lib/parser/makeOptionMaps.ts</title>
<g id="a_node16"><a xlink:href="src/lib/parser/makeOptionMaps.ts" xlink:title="makeOptionMaps.ts">
<path fill="#ddfeff" stroke="black" d="M431.5,-278C431.5,-278 337.5,-278 337.5,-278 334.5,-278 331.5,-275 331.5,-272 331.5,-272 331.5,-266 331.5,-266 331.5,-263 334.5,-260 337.5,-260 337.5,-260 431.5,-260 431.5,-260 434.5,-260 437.5,-263 437.5,-266 437.5,-266 437.5,-272 437.5,-272 437.5,-275 434.5,-278 431.5,-278"/>
<text text-anchor="start" x="339.5" y="-266.8" font-family="Helvetica,sans-Serif" font-size="9.00">makeOptionMaps.ts</text>
</a>
</g>
</g>
<!-- src/lib/parser/parseCommandLine.ts&#45;&gt;src/lib/parser/makeOptionMaps.ts -->
<g id="edge23" class="edge">
<title>src/lib/parser/parseCommandLine.ts&#45;&gt;src/lib/parser/makeOptionMaps.ts</title>
<path fill="none" stroke="#000000" stroke-width="2" stroke-opacity="0.200000" d="M300.37,-262.54C308.5,-263.17 316.85,-263.82 324.99,-264.45"/>
<polygon fill="#000000" fill-opacity="0.200000" stroke="#000000" stroke-width="2" stroke-opacity="0.200000" points="325.01,-266.56 331.15,-264.93 325.33,-262.37 325.01,-266.56"/>
</g>
<!-- src/lib/parser/newConfigFromOptions.ts -->
<g id="node17" class="node">
<title>src/lib/parser/newConfigFromOptions.ts</title>
<g id="a_node17"><a xlink:href="src/lib/parser/newConfigFromOptions.ts" xlink:title="newConfigFromOptions.ts">
<path fill="#ddfeff" stroke="black" d="M445,-233C445,-233 324,-233 324,-233 321,-233 318,-230 318,-227 318,-227 318,-221 318,-221 318,-218 321,-215 324,-215 324,-215 445,-215 445,-215 448,-215 451,-218 451,-221 451,-221 451,-227 451,-227 451,-230 448,-233 445,-233"/>
<text text-anchor="start" x="326" y="-221.8" font-family="Helvetica,sans-Serif" font-size="9.00">newConfigFromOptions.ts</text>
</a>
</g>
</g>
<!-- src/lib/parser/parseCommandLine.ts&#45;&gt;src/lib/parser/newConfigFromOptions.ts -->
<g id="edge24" class="edge">
<title>src/lib/parser/parseCommandLine.ts&#45;&gt;src/lib/parser/newConfigFromOptions.ts</title>
<path fill="none" stroke="#000000" stroke-width="2" stroke-opacity="0.200000" d="M279.55,-248.98C298.1,-244.52 320.59,-239.12 339.89,-234.48"/>
<polygon fill="#000000" fill-opacity="0.200000" stroke="#000000" stroke-width="2" stroke-opacity="0.200000" points="340.43,-236.51 345.78,-233.06 339.45,-232.42 340.43,-236.51"/>
</g>
<!-- src/lib/parser/splitOptionsAndOperands.ts -->
<g id="node18" class="node">
<title>src/lib/parser/splitOptionsAndOperands.ts</title>
<g id="a_node18"><a xlink:href="src/lib/parser/splitOptionsAndOperands.ts" xlink:title="splitOptionsAndOperands.ts">
<path fill="#ddfeff" stroke="black" d="M450,-308C450,-308 319,-308 319,-308 316,-308 313,-305 313,-302 313,-302 313,-296 313,-296 313,-293 316,-290 319,-290 319,-290 450,-290 450,-290 453,-290 456,-293 456,-296 456,-296 456,-302 456,-302 456,-305 453,-308 450,-308"/>
<text text-anchor="start" x="321" y="-296.8" font-family="Helvetica,sans-Serif" font-size="9.00">splitOptionsAndOperands.ts</text>
</a>
</g>
</g>
<!-- src/lib/parser/parseCommandLine.ts&#45;&gt;src/lib/parser/splitOptionsAndOperands.ts -->
<g id="edge25" class="edge">
<title>src/lib/parser/parseCommandLine.ts&#45;&gt;src/lib/parser/splitOptionsAndOperands.ts</title>
<path fill="none" stroke="#000000" stroke-width="2" stroke-opacity="0.200000" d="M292.52,-267.07C295.12,-268.22 297.63,-269.53 300,-271 306.31,-274.92 304.16,-280.14 310.5,-284 312.5,-285.22 314.57,-286.33 316.71,-287.36"/>
<polygon fill="#000000" fill-opacity="0.200000" stroke="#000000" stroke-width="2" stroke-opacity="0.200000" points="316.16,-289.41 322.5,-289.89 317.84,-285.56 316.16,-289.41"/>
</g>
<!-- src/lib/validation/validateConfig.ts&#45;&gt;src/lib/types.ts -->
<g id="edge29" class="edge">
<title>src/lib/validation/validateConfig.ts&#45;&gt;src/lib/types.ts</title>
<path fill="none" stroke="#000000" stroke-width="2" stroke-opacity="0.200000" d="M244.51,-401.18C251.07,-423.1 271.01,-478.28 310.5,-500 371.25,-533.41 406.15,-534.12 466.5,-500 508.07,-476.49 528.87,-419.25 536.7,-391.96"/>
<polygon fill="#000000" fill-opacity="0.200000" stroke="#000000" stroke-width="2" stroke-opacity="0.200000" points="538.77,-392.35 538.34,-386 534.72,-391.23 538.77,-392.35"/>
</g>
<!-- src/lib/validation/errors/InvalidConfigPropError.ts -->
<g id="node20" class="node">
<title>src/lib/validation/errors/InvalidConfigPropError.ts</title>
<g id="a_node20"><a xlink:href="src/lib/validation/errors/InvalidConfigPropError.ts" xlink:title="InvalidConfigPropError.ts">
<path fill="#ddfeff" stroke="black" d="M443,-416C443,-416 326,-416 326,-416 323,-416 320,-413 320,-410 320,-410 320,-404 320,-404 320,-401 323,-398 326,-398 326,-398 443,-398 443,-398 446,-398 449,-401 449,-404 449,-404 449,-410 449,-410 449,-413 446,-416 443,-416"/>
<text text-anchor="start" x="328" y="-404.8" font-family="Helvetica,sans-Serif" font-size="9.00">InvalidConfigPropError.ts</text>
</a>
</g>
</g>
<!-- src/lib/validation/validateConfig.ts&#45;&gt;src/lib/validation/errors/InvalidConfigPropError.ts -->
<g id="edge30" class="edge">
<title>src/lib/validation/validateConfig.ts&#45;&gt;src/lib/validation/errors/InvalidConfigPropError.ts</title>
<path fill="none" stroke="#000000" stroke-width="2" stroke-opacity="0.200000" d="M287.16,-396.79C295.72,-397.69 304.86,-398.66 313.97,-399.63"/>
<polygon fill="#000000" fill-opacity="0.200000" stroke="#000000" stroke-width="2" stroke-opacity="0.200000" points="313.75,-401.72 319.94,-400.26 314.2,-397.54 313.75,-401.72"/>
</g>
<!-- src/lib/validation/errors/InvalidOptionSpecError.ts -->
<g id="node21" class="node">
<title>src/lib/validation/errors/InvalidOptionSpecError.ts</title>
<g id="a_node21"><a xlink:href="src/lib/validation/errors/InvalidOptionSpecError.ts" xlink:title="InvalidOptionSpecError.ts">
<path fill="#ddfeff" stroke="black" d="M444.5,-386C444.5,-386 324.5,-386 324.5,-386 321.5,-386 318.5,-383 318.5,-380 318.5,-380 318.5,-374 318.5,-374 318.5,-371 321.5,-368 324.5,-368 324.5,-368 444.5,-368 444.5,-368 447.5,-368 450.5,-371 450.5,-374 450.5,-374 450.5,-380 450.5,-380 450.5,-383 447.5,-386 444.5,-386"/>
<text text-anchor="start" x="326.5" y="-374.8" font-family="Helvetica,sans-Serif" font-size="9.00">InvalidOptionSpecError.ts</text>
</a>
</g>
</g>
<!-- src/lib/validation/validateConfig.ts&#45;&gt;src/lib/validation/errors/InvalidOptionSpecError.ts -->
<g id="edge31" class="edge">
<title>src/lib/validation/validateConfig.ts&#45;&gt;src/lib/validation/errors/InvalidOptionSpecError.ts</title>
<path fill="none" stroke="#000000" stroke-width="2" stroke-opacity="0.200000" d="M287.16,-387.21C295.09,-386.37 303.51,-385.48 311.95,-384.58"/>
<polygon fill="#000000" fill-opacity="0.200000" stroke="#000000" stroke-width="2" stroke-opacity="0.200000" points="312.65,-386.62 318.4,-383.9 312.21,-382.45 312.65,-386.62"/>
</g>
<!-- src/lib/parser/createPartialChangeObj.ts -->
<g id="node12" class="node">
<title>src/lib/parser/createPartialChangeObj.ts</title>
<g id="a_node12"><a xlink:href="src/lib/parser/createPartialChangeObj.ts" xlink:title="createPartialChangeObj.ts">
<path fill="#ddfeff" stroke="black" d="M602.5,-233C602.5,-233 480.5,-233 480.5,-233 477.5,-233 474.5,-230 474.5,-227 474.5,-227 474.5,-221 474.5,-221 474.5,-218 477.5,-215 480.5,-215 480.5,-215 602.5,-215 602.5,-215 605.5,-215 608.5,-218 608.5,-221 608.5,-221 608.5,-227 608.5,-227 608.5,-230 605.5,-233 602.5,-233"/>
<text text-anchor="start" x="482.5" y="-221.8" font-family="Helvetica,sans-Serif" font-size="9.00">createPartialChangeObj.ts</text>
</a>
</g>
</g>
<!-- src/lib/parser/createPartialChangeObj.ts&#45;&gt;src/lib/parser/_types.ts -->
<g id="edge11" class="edge">
<title>src/lib/parser/createPartialChangeObj.ts&#45;&gt;src/lib/parser/_types.ts</title>
<path fill="none" stroke="#000000" stroke-width="2" stroke-opacity="0.200000" d="M596.67,-233.01C601.07,-235.38 605.12,-238.33 608.5,-242 621.67,-256.3 602.63,-271.38 616.5,-285 629.47,-297.73 649.35,-301.46 666.51,-301.9"/>
<polygon fill="#000000" fill-opacity="0.200000" stroke="#000000" stroke-width="2" stroke-opacity="0.200000" points="666.69,-304 672.69,-301.93 666.7,-299.8 666.69,-304"/>
</g>
<!-- src/lib/parser/errors/ArgumentMissingError.ts -->
<g id="node13" class="node">
<title>src/lib/parser/errors/ArgumentMissingError.ts</title>
<g id="a_node13"><a xlink:href="src/lib/parser/errors/ArgumentMissingError.ts" xlink:title="ArgumentMissingError.ts">
<path fill="#ddfeff" stroke="black" d="M759.5,-256C759.5,-256 643.5,-256 643.5,-256 640.5,-256 637.5,-253 637.5,-250 637.5,-250 637.5,-244 637.5,-244 637.5,-241 640.5,-238 643.5,-238 643.5,-238 759.5,-238 759.5,-238 762.5,-238 765.5,-241 765.5,-244 765.5,-244 765.5,-250 765.5,-250 765.5,-253 762.5,-256 759.5,-256"/>
<text text-anchor="start" x="645.5" y="-244.8" font-family="Helvetica,sans-Serif" font-size="9.00">ArgumentMissingError.ts</text>
</a>
</g>
</g>
<!-- src/lib/parser/createPartialChangeObj.ts&#45;&gt;src/lib/parser/errors/ArgumentMissingError.ts -->
<g id="edge12" class="edge">
<title>src/lib/parser/createPartialChangeObj.ts&#45;&gt;src/lib/parser/errors/ArgumentMissingError.ts</title>
<path fill="none" stroke="#000000" stroke-width="2" stroke-opacity="0.200000" d="M604.49,-233.02C613.64,-234.36 623.11,-235.73 632.37,-237.08"/>
<polygon fill="#000000" fill-opacity="0.200000" stroke="#000000" stroke-width="2" stroke-opacity="0.200000" points="632.19,-239.18 638.43,-237.96 632.79,-235.02 632.19,-239.18"/>
</g>
<!-- src/lib/parser/errors/ArgumentNotANumberError.ts -->
<g id="node14" class="node">
<title>src/lib/parser/errors/ArgumentNotANumberError.ts</title>
<g id="a_node14"><a xlink:href="src/lib/parser/errors/ArgumentNotANumberError.ts" xlink:title="ArgumentNotANumberError.ts">
<path fill="#ddfeff" stroke="black" d="M772.5,-226C772.5,-226 630.5,-226 630.5,-226 627.5,-226 624.5,-223 624.5,-220 624.5,-220 624.5,-214 624.5,-214 624.5,-211 627.5,-208 630.5,-208 630.5,-208 772.5,-208 772.5,-208 775.5,-208 778.5,-211 778.5,-214 778.5,-214 778.5,-220 778.5,-220 778.5,-223 775.5,-226 772.5,-226"/>
<text text-anchor="start" x="632.5" y="-214.8" font-family="Helvetica,sans-Serif" font-size="9.00">ArgumentNotANumberError.ts</text>
</a>
</g>
</g>
<!-- src/lib/parser/createPartialChangeObj.ts&#45;&gt;src/lib/parser/errors/ArgumentNotANumberError.ts -->
<g id="edge13" class="edge">
<title>src/lib/parser/createPartialChangeObj.ts&#45;&gt;src/lib/parser/errors/ArgumentNotANumberError.ts</title>
<path fill="none" stroke="#000000" stroke-width="2" stroke-opacity="0.200000" d="M608.59,-221.07C611.7,-220.93 614.84,-220.79 617.99,-220.66"/>
<polygon fill="#000000" fill-opacity="0.200000" stroke="#000000" stroke-width="2" stroke-opacity="0.200000" points="618.56,-222.73 624.46,-220.37 618.37,-218.54 618.56,-222.73"/>
</g>
<!-- src/lib/parser/errors/UnknownOptionError.ts -->
<g id="node15" class="node">
<title>src/lib/parser/errors/UnknownOptionError.ts</title>
<g id="a_node15"><a xlink:href="src/lib/parser/errors/UnknownOptionError.ts" xlink:title="UnknownOptionError.ts">
<path fill="#ddfeff" stroke="black" d="M756.5,-196C756.5,-196 646.5,-196 646.5,-196 643.5,-196 640.5,-193 640.5,-190 640.5,-190 640.5,-184 640.5,-184 640.5,-181 643.5,-178 646.5,-178 646.5,-178 756.5,-178 756.5,-178 759.5,-178 762.5,-181 762.5,-184 762.5,-184 762.5,-190 762.5,-190 762.5,-193 759.5,-196 756.5,-196"/>
<text text-anchor="start" x="648.5" y="-184.8" font-family="Helvetica,sans-Serif" font-size="9.00">UnknownOptionError.ts</text>
</a>
</g>
</g>
<!-- src/lib/parser/makeOptionMaps.ts&#45;&gt;src/lib/types.ts -->
<g id="edge14" class="edge">
<title>src/lib/parser/makeOptionMaps.ts&#45;&gt;src/lib/types.ts</title>
<path fill="none" stroke="#000000" stroke-width="2" stroke-opacity="0.200000" d="M437.69,-269.14C448.47,-271.57 458.84,-276.08 466.5,-284 483.06,-301.12 461.29,-317.18 474.5,-337 482.89,-349.58 496.71,-358.85 509.54,-365.27"/>
<polygon fill="#000000" fill-opacity="0.200000" stroke="#000000" stroke-width="2" stroke-opacity="0.200000" points="508.64,-367.17 514.96,-367.85 510.45,-363.38 508.64,-367.17"/>
</g>
<!-- src/lib/parser/makeOptionMaps.ts&#45;&gt;src/lib/parser/_types.ts -->
<g id="edge15" class="edge">
<title>src/lib/parser/makeOptionMaps.ts&#45;&gt;src/lib/parser/_types.ts</title>
<path fill="none" stroke="#000000" stroke-width="2" stroke-opacity="0.200000" d="M437.52,-273.95C502.46,-280.14 611.7,-290.54 666.7,-295.78"/>
<polygon fill="#000000" fill-opacity="0.200000" stroke="#000000" stroke-width="2" stroke-opacity="0.200000" points="666.64,-297.88 672.81,-296.36 667.04,-293.7 666.64,-297.88"/>
</g>
<!-- src/lib/parser/newConfigFromOptions.ts&#45;&gt;src/lib/parser/_types.ts -->
<g id="edge16" class="edge">
<title>src/lib/parser/newConfigFromOptions.ts&#45;&gt;src/lib/parser/_types.ts</title>
<path fill="none" stroke="#000000" stroke-width="2" stroke-opacity="0.200000" d="M436.74,-233C449.09,-235.07 462.25,-237.19 474.5,-239 504.19,-243.38 585.81,-236.35 608.5,-256 618.61,-264.75 606.57,-276.05 616.5,-285 629.9,-297.08 649.61,-300.82 666.57,-301.43"/>
<polygon fill="#000000" fill-opacity="0.200000" stroke="#000000" stroke-width="2" stroke-opacity="0.200000" points="666.65,-303.53 672.68,-301.53 666.71,-299.33 666.65,-303.53"/>
</g>
<!-- src/lib/parser/newConfigFromOptions.ts&#45;&gt;src/lib/parser/createNewConfig.ts -->
<g id="edge17" class="edge">
<title>src/lib/parser/newConfigFromOptions.ts&#45;&gt;src/lib/parser/createNewConfig.ts</title>
<path fill="none" stroke="#000000" stroke-width="2" stroke-opacity="0.200000" d="M415.94,-214.96C433.12,-209.9 454.98,-203.51 474.5,-198 483.04,-195.59 492.23,-193.05 500.94,-190.66"/>
<polygon fill="#000000" fill-opacity="0.200000" stroke="#000000" stroke-width="2" stroke-opacity="0.200000" points="501.66,-192.65 506.89,-189.04 500.55,-188.59 501.66,-192.65"/>
</g>
<!-- src/lib/parser/newConfigFromOptions.ts&#45;&gt;src/lib/parser/createPartialChangeObj.ts -->
<g id="edge18" class="edge">
<title>src/lib/parser/newConfigFromOptions.ts&#45;&gt;src/lib/parser/createPartialChangeObj.ts</title>
<path fill="none" stroke="#000000" stroke-width="2" stroke-opacity="0.200000" d="M451.23,-224C456.81,-224 462.47,-224 468.09,-224"/>
<polygon fill="#000000" fill-opacity="0.200000" stroke="#000000" stroke-width="2" stroke-opacity="0.200000" points="468.17,-226.1 474.17,-224 468.17,-221.9 468.17,-226.1"/>
</g>
<!-- src/lib/parser/newConfigFromOptions.ts&#45;&gt;src/lib/parser/errors/UnknownOptionError.ts -->
<g id="edge19" class="edge">
<title>src/lib/parser/newConfigFromOptions.ts&#45;&gt;src/lib/parser/errors/UnknownOptionError.ts</title>
<path fill="none" stroke="#000000" stroke-width="2" stroke-opacity="0.200000" d="M435.3,-214.97C448.05,-212.84 461.76,-210.69 474.5,-209 504.27,-205.05 578.67,-198.01 634.03,-192.95"/>
<polygon fill="#000000" fill-opacity="0.200000" stroke="#000000" stroke-width="2" stroke-opacity="0.200000" points="634.55,-195.01 640.34,-192.38 634.17,-190.83 634.55,-195.01"/>
</g>
<!-- src/lib/sampleConfig.ts -->
<g id="node19" class="node">
<title>src/lib/sampleConfig.ts</title>
<g id="a_node19"><a xlink:href="src/lib/sampleConfig.ts" xlink:title="sampleConfig.ts">
<path fill="#ddfeff" stroke="black" d="M423,-494C423,-494 346,-494 346,-494 343,-494 340,-491 340,-488 340,-488 340,-482 340,-482 340,-479 343,-476 346,-476 346,-476 423,-476 423,-476 426,-476 429,-479 429,-482 429,-482 429,-488 429,-488 429,-491 426,-494 423,-494"/>
<text text-anchor="start" x="348" y="-482.8" font-family="Helvetica,sans-Serif" font-size="9.00">sampleConfig.ts</text>
</a>
</g>
</g>
<!-- src/lib/sampleConfig.ts&#45;&gt;src/lib/types.ts -->
<g id="edge26" class="edge">
<title>src/lib/sampleConfig.ts&#45;&gt;src/lib/types.ts</title>
<path fill="none" stroke="#000000" stroke-width="2" stroke-opacity="0.200000" d="M408.1,-475.91C424.9,-468.68 448,-457.68 466.5,-445 490.03,-428.87 513.69,-405.6 527.72,-390.9"/>
<polygon fill="#000000" fill-opacity="0.200000" stroke="#000000" stroke-width="2" stroke-opacity="0.200000" points="529.5,-392.07 532.09,-386.26 526.45,-389.18 529.5,-392.07"/>
</g>
<!-- src/lib/validation/errors/InvalidConfigPropError.ts&#45;&gt;src/lib/types.ts -->
<g id="edge27" class="edge">
<title>src/lib/validation/errors/InvalidConfigPropError.ts&#45;&gt;src/lib/types.ts</title>
<path fill="none" stroke="#000000" stroke-width="2" stroke-opacity="0.200000" d="M435.22,-397.93C445.56,-396 456.39,-393.96 466.5,-392 480.21,-389.34 495.33,-386.3 508.31,-383.65"/>
<polygon fill="#000000" fill-opacity="0.200000" stroke="#000000" stroke-width="2" stroke-opacity="0.200000" points="509.04,-385.64 514.49,-382.38 508.19,-381.53 509.04,-385.64"/>
</g>
<!-- src/lib/validation/errors/InvalidOptionSpecError.ts&#45;&gt;src/lib/types.ts -->
<g id="edge28" class="edge">
<title>src/lib/validation/errors/InvalidOptionSpecError.ts&#45;&gt;src/lib/types.ts</title>
<path fill="none" stroke="#000000" stroke-width="2" stroke-opacity="0.200000" d="M450.78,-377C470.51,-377 491.31,-377 507.91,-377"/>
<polygon fill="#000000" fill-opacity="0.200000" stroke="#000000" stroke-width="2" stroke-opacity="0.200000" points="508.29,-379.1 514.29,-377 508.29,-374.9 508.29,-379.1"/>
</g>
</g>
</svg>
